<?xml version="1.0" encoding="UTF-8"?>
<svg width="243.53mm" height="164.11mm" version="1.1" viewBox="0 0 243.53 164.11" xmlns="http://www.w3.org/2000/svg" xmlns:cc="http://creativecommons.org/ns#" xmlns:dc="http://purl.org/dc/elements/1.1/" xmlns:rdf="http://www.w3.org/1999/02/22-rdf-syntax-ns#">
 <metadata>
  <rdf:RDF>
   <cc:Work rdf:about="">
    <dc:format>image/svg+xml</dc:format>
    <dc:type rdf:resource="http://purl.org/dc/dcmitype/StillImage"/>
    <dc:title/>
   </cc:Work>
  </rdf:RDF>
 </metadata>
 <g transform="translate(211.72 181.84)">
  <g fill="#00204f">
   <path d="m-89.959-181.84 2.0264 4.1063 4.5332 0.65969-3.2808 3.1962 0.77611 4.5156-4.0548-2.1308-4.0541 2.1308 0.77435-4.5156-3.2801-3.1962 4.5328-0.65969 2.0271-4.1063"/>
   <path d="m-104.94-175.65 1.5886 3.2173 3.5525 0.51505-2.5707 2.5047 0.60678 3.5384-3.1771-1.6686-3.1771 1.6686 0.60643-3.5384-2.5703-2.5047 3.5521-0.51505 1.5889-3.2173"/>
   <path d="m-117.04-167.17 1.1345 2.2966 2.5365 0.37041-1.8355 1.7886 0.43321 2.5259-2.2687-1.1924-2.2687 1.1924 0.43321-2.5259-1.8355-1.7886 2.5365-0.37041 1.1345-2.2966"/>
   <path d="m-75.095-175.65-1.5875 3.2173-3.5525 0.51505 2.5682 2.5047-0.60678 3.5384 3.1785-1.6686 3.1785 1.6686-0.60678-3.5384 2.5682-2.5047-3.5525-0.51505-1.5875-3.2173"/>
   <path d="m-62.999-167.17-1.1359 2.2966-2.5365 0.37041 1.8344 1.7886-0.43392 2.5259 2.2719-1.1924 2.2684 1.1924-0.43391-2.5259 1.8344-1.7886-2.5365-0.37041-1.1324-2.2966"/>
   <path d="m-118.5-130.61 6.0011-4.3603c1.4108-1.0266 3.2385-1.2841 4.8778-0.69144l4.3515 1.5769c1.5229 0.55386 2.7065 1.778 3.2071 3.3161l1.9184 5.9055c0.51999 1.6016 0.24165 3.3549-0.7493 4.7166l-2.6981 3.7042c-0.98884 1.3582-2.5679 2.1625-4.2478 2.1625h-7.4013c-3.2819-4.6214-5.2275-10.252-5.2596-16.33zm19.61-27.256 5.775 4.1945c1.3607 0.98778 2.1661 2.5682 2.1661 4.251v4.7837c0 1.6792-0.80539 3.2597-2.1661 4.251l-4.9848 3.6195c-1.4108 1.0266-3.2385 1.2841-4.8782 0.69145l-4.4517-1.6157c-1.5229-0.55033-2.7065-1.7745-3.2071-3.3161l-2.2084-6.798c3.4727-4.6496 8.3312-8.2056 13.955-10.061zm12.061 36.685c1.6651 0 3.2314 0.79023 4.2228 2.1272l2.8046 3.7888c1.009 1.3652 1.2982 3.1327 0.77259 4.7484l-2.2542 6.9391c-2.7376 0.87489-5.655 1.3547-8.6798 1.3547-2.9983 0-5.8886-0.46919-8.6053-1.33l-2.2479-6.918c-0.51999-1.6016-0.24165-3.3549 0.7493-4.7166l2.7912-3.8312c0.98884-1.3617 2.5675-2.1625 4.2478-2.1625zm-2.1484-28.24c0-1.6828 0.80434-3.2632 2.1661-4.251l5.775-4.1945c5.6691 1.8697 10.559 5.4716 14.037 10.178l-2.1096 6.4982c-0.49742 1.5275-1.6651 2.7446-3.175 3.302l-4.7025 1.7462c-1.651 0.60678-3.4925 0.3563-4.9142-0.67733l-4.9107-3.5666c-1.3617-0.9913-2.1661-2.5718-2.1661-4.251zm27.555 18.655c0 6.163-1.9685 11.867-5.2987 16.535h-7.2143c-1.6651 0-3.2314-0.7867-4.2228-2.1272l-2.8293-3.8206c-1.0089-1.3652-1.2982-3.1327-0.77258-4.7484l1.9262-5.9302c0.49389-1.5275 1.6651-2.7446 3.1715-3.3055l4.4097-1.6334c1.6475-0.6103 3.4925-0.3563 4.9142 0.67733l5.9126 4.2968c0 0.0177 4e-3 0.0388 4e-3 0.0565zm-28.541 30.515c16.825 0 30.513-13.688 30.513-30.515 0-16.824-13.688-30.512-30.513-30.512-16.825 0-30.513 13.688-30.513 30.512 0 16.828 13.688 30.515 30.513 30.515"/>
   <path d="m-196.06-113.12h61.4v-11.292l10.813-5.6127c9e-3 0.4198 0.0201 0.83608 0.0444 1.2488l-9.7264 5.0518v11.737h-59.398l20.965 17.395h-2.6e-4 164l20.966-17.395h-59.397v-11.737l-9.7261-5.0482c0.0212-0.41628 0.0353-0.83256 0.0423-1.2524l10.813 5.6127v11.292h61.401l-106.1 88.043zm106.1-49.287c17.45 0 31.642 14.192 31.642 31.641s-14.192 31.644-31.642 31.644c-17.448 0-31.643-14.196-31.643-31.644s14.195-31.641 31.643-31.641zm46.96 47.025v-10.407l-13.106-6.8016c-0.9525-17.851-15.773-32.078-33.854-32.078-18.083 0-32.903 14.228-33.854 32.078l-13.106 6.8016v10.407h-65.405l112.37 93.243 112.36-93.243h-65.405"/>
   <path d="m-89.959-28.959-13.166-11.155h26.57zm-48.234-37.613 48.234 40.026 48.233-40.026h-96.467"/>
  </g>
  <path d="m-39.606-118.77v-9.077l-1.2206-0.63147-12.047-6.2548c-0.77611-7.3519-3.7042-14.231-8.3961-19.868l-1.7427 1.4464c4.5332 5.4504 7.4577 12.305 7.9975 19.858l13.148 6.8262v9.9624h67.405l-115.5 95.843-115.5-95.843h67.407v-9.9624l13.148-6.8262c0.54081-7.553 3.4622-14.407 7.9975-19.858l-1.7424-1.4464c-4.693 5.6374-7.6193 12.517-8.3979 19.868l-12.047 6.2548-1.2199 0.63147v9.077h-71.412l4.8221 4.0005 115.5 95.843 1.4439 1.1994 1.4443-1.1994 115.5-95.843 4.8225-4.0005h-71.413" fill="#dba527"/>
  <g fill="#00204f">
   <path d="m-147.17-87.848h10.165v2.8575h-6.0353v2.3248h5.1548v2.6846h-5.1548v5.4363h-4.1293v-13.303"/>
   <path d="m-130.27-81.17c0 1.3441 0.24941 2.3107 0.74859 2.8963s1.1783 0.87841 2.0376 0.87841c0.88335 0 1.5667-0.28575 2.0507-0.86077 0.48437-0.57503 0.72602-1.6051 0.72602-3.0939 0-1.2524-0.25259-2.1696-0.75777-2.7481-0.50517-0.57503-1.1903-0.86431-2.0553-0.86431-0.82903 0-1.4947 0.29281-1.9971 0.87842-0.50201 0.58914-0.75283 1.5593-0.75283 2.9139zm-4.1113-0.0177c0-2.1731 0.60501-3.8629 1.815-5.0729 1.21-1.21 2.8949-1.8168 5.055-1.8168 2.2144 0 3.9204 0.59619 5.1184 1.7851 1.198 1.1889 1.797 2.854 1.797 4.9953 0 1.5558-0.26176 2.8293-0.78493 3.8241-0.52317 0.99836-1.2795 1.771-2.2691 2.3248-0.98884 0.55386-2.2218 0.82903-3.6982 0.82903-1.5004 0-2.7421-0.23637-3.7253-0.71614-0.98319-0.47625-1.7805-1.2347-2.3915-2.2684-0.61101-1.0336-0.91651-2.3283-0.91651-3.8841"/>
   <path d="m-113.86-81.17c0 1.3441 0.24941 2.3107 0.74859 2.8963s1.1783 0.87841 2.0376 0.87841c0.88336 0 1.567-0.28575 2.051-0.86077 0.48401-0.57503 0.72602-1.6051 0.72602-3.0939 0-1.2524-0.25294-2.1696-0.75777-2.7481-0.50518-0.57503-1.1906-0.86431-2.0556-0.86431-0.82903 0-1.4947 0.29281-1.9967 0.87842-0.50236 0.58914-0.75318 1.5593-0.75318 2.9139zm-4.1113-0.0177c0-2.1731 0.60502-3.8629 1.815-5.0729 1.2104-1.21 2.8952-1.8168 5.055-1.8168 2.2144 0 3.9208 0.59619 5.1188 1.7851 1.198 1.1889 1.797 2.854 1.797 4.9953 0 1.5558-0.26211 2.8293-0.78528 3.8241-0.52317 0.99836-1.2795 1.771-2.2687 2.3248-0.98919 0.55386-2.2222 0.82903-3.6982 0.82903-1.5007 0-2.7425-0.23637-3.7257-0.71614-0.98319-0.47625-1.7801-1.2347-2.3911-2.2684-0.61136-1.0336-0.91687-2.3283-0.91687-3.8841"/>
   <path d="m-102.45-87.848h12.497v3.2844h-4.1928v10.019h-4.1113v-10.019h-4.1928v-3.2844"/>
   <path d="m-83.012-77.402h2.099c0.70555 0 1.2065-0.127 1.4958-0.37747 0.29281-0.25048 0.43745-0.58914 0.43745-1.0125 0-0.39158-0.14464-0.70908-0.43039-0.94897-0.28928-0.23636-0.79375-0.3563-1.5134-0.3563h-2.0884zm0-5.2282h1.7886c0.64206 0 1.0901-0.10936 1.3406-0.33161 0.25047-0.22225 0.37747-0.53975 0.37747-0.95603 0-0.38806-0.127-0.69145-0.37747-0.91017-0.25048-0.2152-0.68792-0.32456-1.3123-0.32456h-1.8168zm-4.1451-5.2176h7.6941c1.2841 0 2.2684 0.3175 2.9563 0.9525 0.68439 0.635 1.0301 1.4217 1.0301 2.3601 0 0.7867-0.24694 1.4605-0.7373 2.0214-0.32456 0.37747-0.80434 0.6738-1.4323 0.889 0.95603 0.23283 1.658 0.62794 2.1096 1.1853 0.45155 0.56092 0.67733 1.263 0.67733 2.1096 0 0.69145-0.16228 1.3123-0.4833 1.8627-0.32103 0.55033-0.75848 0.98425-1.3159 1.3053-0.3422 0.20108-0.86431 0.34572-1.5593 0.43744-0.92781 0.11995-1.5416 0.17992-1.8415 0.17992h-7.0979v-13.303"/>
   <path d="m-64.769-79.617-1.4711-4.7837-1.4534 4.7837zm0.85019 2.8787h-4.6672l-0.64558 2.1943h-4.1981l4.9989-13.303h4.4838l4.9989 13.303h-4.3039l-0.66675-2.1943"/>
   <path d="m-56.712-87.848h4.1134v10.026h6.4135v3.2773h-10.527v-13.303"/>
   <path d="m-43.384-87.848h4.1099v10.026h6.417v3.2773h-10.527v-13.303"/>
  </g>
  <g fill="#fff">
   <path d="m-103.85-51.9 2.0034 0.635c-0.30692 1.1183-0.81774 1.9473-1.5321 2.4871-0.71473 0.54327-1.6203 0.81491-2.7185 0.81491-1.3592 0-2.4762-0.46566-3.3514-1.3935-0.87454-0.92781-1.3123-2.1978-1.3123-3.8065 0-1.7039 0.43956-3.0268 1.3197-3.9688 0.87947-0.94192 2.0359-1.4146 3.4692-1.4146 1.2517 0 2.2687 0.37042 3.0505 1.1112 0.46531 0.43744 0.81456 1.0654 1.0474 1.8838l-2.0458 0.49036c-0.121-0.53269-0.37323-0.9525-0.75706-1.2594-0.38382-0.30692-0.8509-0.45861-1.3998-0.45861-0.75847 0-1.3737 0.27163-1.8464 0.81491-0.47237 0.54681-0.70838 1.4288-0.70838 2.6458 0 1.2947 0.23248 2.2154 0.69815 2.7658 0.46496 0.55034 1.0703 0.82198 1.8147 0.82198 0.54928 0 1.022-0.17287 1.4171-0.52212 0.39546-0.34925 0.6798-0.89958 0.8516-1.6475"/>
   <path d="m-99.298-48.136v-10.153h2.0662v8.4279h5.1378v1.7251h-7.2041"/>
   <path d="m-89.92-58.37h2.0648v5.5421c0 0.87841 0.0282 1.4499 0.0776 1.711 0.0882 0.41628 0.29986 0.75494 0.63147 1.0054 0.33514 0.254 0.79022 0.381 1.3652 0.381 0.58561 0 1.0301-0.11995 1.3264-0.35631 0.29633-0.23989 0.47625-0.53622 0.53975-0.88547 0.06-0.34925 0.0882-0.92781 0.0882-1.7392v-5.6586h2.0673v5.3728c0 1.2312-0.0565 2.099-0.16581 2.6035-0.11289 0.508-0.32102 0.93839-0.62089 1.2841-0.29986 0.34925-0.70202 0.62795-1.203 0.83609-0.50447 0.20814-1.1606 0.31044-1.9685 0.31044-0.97719 0-1.718-0.11289-2.2225-0.33866-0.50447-0.22578-0.90664-0.51859-1.1994-0.87842-0.29281-0.36336-0.48683-0.74083-0.57856-1.136-0.13476-0.58561-0.20214-1.4499-0.20214-2.5964v-5.4575"/>
   <path d="m-76.792-52.598v2.7376h1.9121c0.74436 0 1.2171-0.0212 1.4146-0.0635 0.31045-0.0565 0.55739-0.19403 0.75142-0.40922 0.19403-0.2152 0.28928-0.50448 0.28928-0.86784 0-0.30691-0.0741-0.56797-0.22225-0.78316-0.14817-0.21167-0.36336-0.37042-0.64558-0.46567-0.28223-0.0988-0.89253-0.14817-1.8309-0.14817zm0-4.071v2.3671h1.3511c0.80786 0 1.3088-0.0106 1.5028-0.0353 0.35278-0.0423 0.63147-0.16228 0.83256-0.36689 0.20461-0.20108 0.30339-0.46567 0.30339-0.79728 0-0.3175-0.0847-0.57503-0.26106-0.77258-0.17286-0.19756-0.43392-0.3175-0.77611-0.35984-0.20814-0.0212-0.79375-0.0353-1.7674-0.0353zm-2.0673-1.7004h4.0887c0.81139 0 1.4146 0.0318 1.8133 0.0988 0.39864 0.067 0.75495 0.20813 1.0689 0.42333 0.31397 0.21519 0.57503 0.49742 0.78317 0.85372 0.21166 0.35631 0.31397 0.75495 0.31397 1.1994 0 0.47977-0.127 0.91722-0.38453 1.3194-0.26105 0.39864-0.6103 0.6985-1.0513 0.89959 0.62089 0.17991 1.1007 0.49036 1.4358 0.9278 0.33514 0.43745 0.50447 0.9525 0.50447 1.5452 0 0.46214-0.10936 0.91722-0.32455 1.3547-0.2152 0.44097-0.51153 0.79375-0.889 1.0548-0.37395 0.26459-0.83609 0.42686-1.3829 0.48684-0.34572 0.0353-1.1783 0.06-2.4941 0.0705h-3.4819v-10.234"/>
  </g>
  <path d="m-127.03-115.9 13.29 13.293h-60.798l51.388-3.8135-3.8806-9.4791" fill="#dba527"/>
  <path d="m-51.886-115.9-13.289 13.293h60.798l-51.389-3.8135 3.8806-9.4791" fill="#dba527"/>
 </g>
</svg>
