<?xml version="1.0" encoding="UTF-8"?>
<svg width="181.98mm" height="175.85mm" version="1.1" viewBox="0 0 181.98 175.85" xmlns="http://www.w3.org/2000/svg" xmlns:cc="http://creativecommons.org/ns#" xmlns:dc="http://purl.org/dc/elements/1.1/" xmlns:rdf="http://www.w3.org/1999/02/22-rdf-syntax-ns#">
 <metadata>
  <rdf:RDF>
   <cc:Work rdf:about="">
    <dc:format>image/svg+xml</dc:format>
    <dc:type rdf:resource="http://purl.org/dc/dcmitype/StillImage"/>
    <dc:title/>
   </cc:Work>
  </rdf:RDF>
 </metadata>
 <g transform="translate(196.07 201.32)">
  <g fill="#00204f">
   <path d="m-196.07-119.53h16.182v4.5508h-9.6061v3.6971h8.2056v4.2792h-8.2056v8.6536h-6.5758v-21.181"/>
   <path d="m-169.16-108.9c0 2.1378 0.39864 3.676 1.1924 4.6073 0.79375 0.93486 1.8732 1.4041 3.242 1.4041 1.4076 0 2.4941-0.45862 3.2667-1.3723 0.76906-0.91722 1.1536-2.5576 1.1536-4.9283 0-1.9932-0.40216-3.4502-1.2065-4.3709-0.80433-0.91722-1.8944-1.3794-3.2702-1.3794-1.3194 0-2.3812 0.46919-3.1785 1.4005-0.80081 0.93487-1.1994 2.48-1.1994 4.639zm-6.544-0.0282c0-3.4572 0.96309-6.1524 2.8892-8.0786 1.9262-1.9262 4.6073-2.8892 8.0469-2.8892 3.5242 0 6.2406 0.94897 8.1492 2.8399 1.905 1.8944 2.861 4.5438 2.861 7.9551 0 2.473-0.41628 4.505-1.2524 6.089-0.83256 1.584-2.0355 2.8152-3.6089 3.6971-1.5769 0.88194-3.5384 1.3229-5.8879 1.3229-2.3918 0-4.3674-0.381-5.9302-1.143-1.5663-0.75848-2.8363-1.9614-3.81-3.6089-0.97367-1.6475-1.457-3.7077-1.457-6.1842"/>
   <path d="m-143.03-108.9c0 2.1378 0.39864 3.676 1.1924 4.6073 0.79375 0.93486 1.8768 1.4041 3.242 1.4041 1.4076 0 2.4977-0.45862 3.2667-1.3723 0.76906-0.91722 1.1571-2.5576 1.1571-4.9283 0-1.9932-0.40216-3.4502-1.2065-4.3709-0.80433-0.91722-1.8944-1.3794-3.2738-1.3794-1.3194 0-2.3777 0.46919-3.1785 1.4005-0.80081 0.93487-1.1994 2.48-1.1994 4.639zm-6.544-0.0282c0-3.4572 0.96308-6.1524 2.8892-8.0786 1.9262-1.9262 4.6073-2.8892 8.0469-2.8892 3.5242 0 6.2406 0.94897 8.1492 2.8399 1.9085 1.8944 2.861 4.5438 2.861 7.9551 0 2.473-0.41628 4.505-1.2488 6.089-0.83256 1.584-2.0391 2.8152-3.6124 3.6971-1.5769 0.88194-3.5384 1.3229-5.8879 1.3229-2.3883 0-4.3674-0.381-5.9302-1.143-1.5663-0.75848-2.8363-1.9614-3.8065-3.6089-0.97367-1.6475-1.4605-3.7077-1.4605-6.1842"/>
  </g>
  <g transform="matrix(.035834 0 0 -.035834 -689.09 245.12)">
   <path d="m15745 10176h555.1v-146h-186.3v-445.14h-182.6v445.14h-186.2v146" fill="#00204f"/>
  </g>
  <g transform="matrix(.037309 0 0 -.037309 -689.09 245.12)">
   <path d="m15952 9328h89.5c30.1 0 51.5 5.39 63.9 16.08 12.4 10.78 18.5 25.15 18.5 43.21 0 16.73-6.1 30.26-18.3 40.47-12.3 10.21-33.8 15.32-64.5 15.32h-89.1zm0 223.11h76.3c27.3 0 46.4 4.7 57.1 14.12s16.1 23.04 16.1 40.86c0 16.52-5.4 29.43-16.1 38.72-10.7 9.3-29.4 13.94-55.9 13.94h-77.5zm-177 222.66h328.4c54.7 0 96.7-13.56 126-40.66 29.4-27.1 44-60.68 44-100.69 0-33.56-10.5-62.34-31.4-86.35-13.9-16.01-34.3-28.65-61.2-37.95 40.9-9.81 70.9-26.66 90.1-50.55 19.2-23.85 28.8-53.92 28.8-90.04 0-29.41-6.8-55.89-20.5-79.34-13.6-23.54-32.4-42.17-56.1-55.78-14.7-8.51-37-14.75-66.7-18.63-39.5-5.11-65.7-7.76-78.5-7.76h-302.9v567.75" fill="#00204f"/>
  </g>
  <g transform="matrix(.038863 0 0 -.038863 -689.09 245.12)">
   <path d="m16062 9045.7-60.1 195.89-59.6-195.89zm34.9-117.91h-191.2l-26.6-89.96h-171.9l204.9 545.04h183.6l204.8-545.04h-176.3l-27.3 89.96" fill="#00204f"/>
  </g>
  <g transform="matrix(.040109 0 0 -.040109 -689.09 245.12)">
   <path d="m15882 9091.3h163.2v-398.01h254.6v-130.09h-417.8v528.1" fill="#00204f"/>
  </g>
  <g transform="matrix(.041411 0 0 -.041411 -689.09 245.12)">
   <path d="m15895 8805.5h158.1v-385.5h246.6v-126h-404.7v511.5" fill="#00204f"/>
  </g>
  <g transform="matrix(.03631 0 0 -.03631 -689.09 245.12)">
   <path d="m15873 8664.9v-780.65c69.6-44.5 140.7-85.4 213.3-122.13 72.8 36.73 143.9 77.63 213.4 122.13v780.36c-71.9 3.2-144.2 4.85-216.7 4.85-70.1 0-140.3-1.55-210-4.56" fill="#dba527"/>
  </g>
  <path d="m-128.22-53.59v-14.566c-3.7994 0.50448-7.5142 1.1324-11.105 1.8838 3.5031 4.632 7.2108 8.8582 11.105 12.682" fill="#dba527"/>
  <g transform="matrix(.03794 0 0 -.03794 -689.09 245.12)">
   <path d="m16300 8206.2c-94.3 19.9-191.9 36.54-291.8 50.03v-383.19c102.3 100.61 199.7 211.54 291.8 333.16" fill="#dba527"/>
  </g>
  <g transform="matrix(.037707 0 0 -.037707 -689.09 245.12)">
   <path d="m14734 11026 159.2 115.6c37.4 27.2 85.9 34.1 129.4 18.3l115.3-41.8c40.4-14.6 71.9-47.1 85.2-88l50.8-156.5c13.8-42.5 6.4-89-19.9-125.1l-71.5-98.3c-26.2-36-68.1-57.3-112.7-57.3h-196.3c-87 122.5-138.6 271.9-139.5 433.1zm520.1 722.8 153.2-111.3c36.1-26.2 57.4-68.1 57.4-112.7v-126.8c0-44.6-21.3-86.5-57.4-112.7l-132.2-96.1c-37.4-27.2-85.9-34-129.4-18.3l-118.1 42.8c-40.4 14.6-71.7 47.1-85 87.9l-58.6 180.3c92.1 123.4 221 217.7 370.1 266.9zm319.8-972.9c44.2 0 85.7-20.9 112-56.4l74.4-100.5c26.8-36.2 34.5-83.1 20.6-126l-59.8-184c-72.6-23.2-150-35.9-230.3-35.9-79.5 0-156.1 12.4-228.2 35.3l-59.5 183.4c-13.9 42.5-6.5 89 19.8 125.1l74 101.7c26.3 36 68.1 57.3 112.6 57.3zm-56.9 748.9c0 44.6 21.4 86.5 57.5 112.7l153.1 111.3c150.4-49.6 280-145.1 372.3-269.9l-56.1-172.4c-13.1-40.5-44.1-72.8-84.1-87.6l-124.8-46.2c-43.7-16.2-92.6-9.5-130.2 17.9l-130.2 94.7c-36.1 26.2-57.5 68.1-57.5 112.7zm730.8-494.8c0-163.3-52.2-314.6-140.6-438.5h-191.2c-44.2 0-85.7 21-112 56.5l-75.1 101.3c-26.8 36.2-34.5 83.1-20.5 126l51 157.2c13.2 40.6 44.2 72.8 84.2 87.6l117 43.4c43.7 16.2 92.6 9.4 130.3-18l156.8-113.9c0-0.5 0.1-1 0.1-1.6zm-757-809.2c446.3 0 809.3 363 809.3 809.2s-363 809.2-809.3 809.2c-446.1 0-809.1-363-809.1-809.2s363-809.2 809.1-809.2" fill="#00204f"/>
  </g>
  <g transform="matrix(.039612 0 0 -.039612 -689.09 245.12)">
   <path d="m16238 8540.6c-57.7-129.31-123.2-260.94-197.4-391.51-337.6-593.66-769-1014.2-1282.2-1249.8l-12-5.43-11.8 5.43c-513.3 235.65-944.7 656.19-1282.3 1249.8-74.3 130.57-139.6 262.2-197.4 391.51h-62.5c61-138.4 130.6-279.65 210.2-419.74 343.7-604.26 783.8-1032.8 1308.1-1273.4l35.7-16.47 35.7 16.47c524.4 240.64 964.5 669.19 1308.1 1273.4 79.7 140.09 149.4 281.34 210.3 419.74h-62.5" fill="#00204f"/>
  </g>
  <g transform="matrix(.040425 0 0 -.040425 -689.09 245.12)">
   <path d="m15260 10285c115.4-18.5 230.2-40.8 344.1-67.2l21.6-5v-354.2l314.4-74.75-6.4-27.2c-6.3-26.43-9.5-53.4-9.5-80.19 0-165.15 117.5-308.1 279.4-339.86l28.5-5.63-6.7-28.33c-12.3-51.55-26.4-107.1-42.4-165.89h57.9c14.5 53.94 27.5 105.15 38.9 152.9l20.3 85.01-85.8 16.82c-135.7 26.64-234.1 146.49-234.1 284.98 0 22.46 2.7 45.09 7.9 67.29l19.3 81.59-325.8 77.46v354.5l-64.9 15c-118.7 27.5-238.3 50.7-358.7 69.7 1.2-17.7 2.1-35.5 2.1-53.5 0-1.2-0.1-2.3-0.1-3.5" fill="#00204f"/>
  </g>
  <path d="m-177.4-124.25h2.3424c-0.64911-2.3742-1.2171-4.6214-1.7145-6.7063l-0.27517-1.143 1.1571-0.22931c6.5405-1.2841 11.292-7.0626 11.292-13.737 0-1.083-0.13053-2.1766-0.381-3.242l-0.26106-1.1007 12.707-3.0198v-14.319l0.87489-0.20461c4.6038-1.0619 9.2463-1.9685 13.914-2.7129 0-0.0494-4e-3 -0.0952-4e-3 -0.14111 0-0.73025 0.0318-1.4499 0.0776-2.166-4.8613 0.76905-9.6979 1.7074-14.496 2.8187l-2.6282 0.60678v14.33l-13.169 3.1327 0.78316 3.2985c0.21167 0.89606 0.32103 1.8098 0.32103 2.7199 0 5.5986-3.9829 10.442-9.4686 11.518l-3.4643 0.68086 0.81844 3.4361c0.46214 1.9297 0.98778 4.0005 1.5734 6.1807" fill="#00204f"/>
  <g transform="matrix(.039384 0 0 -.039384 -689.09 245.12)">
   <path d="m14831 7092.3c-370.2 180.67-695.4 466.14-970.5 851.13 289.4 68.26 618.4 106.86 967.4 106.86 351.1 0 681.9-39.05 972.7-108.11-275-384.36-599.9-669.39-969.6-849.88zm-1468.7 1497.7c277.5-617.79 733.7-1287.4 1468.7-1624.8 734.9 337.43 1191.1 1007 1468.7 1624.8h-2937.4" fill="#00204f"/>
  </g>
  <g transform="matrix(.040173 0 0 -.040173 -689.09 245.12)">
   <path d="m16201 9262.9h-3325l-11.3 39.4h3346.5zm-204.4 474.63c0 30.02 3.6 59.19 10.2 87.18l-310.6 73.86v356.3c-112.9 26.1-226.5 48.3-340.7 66.6-16.8-435.08-375.8-783.91-815-783.91s-798.2 348.83-815 783.91c-114.1-18.3-227.7-40.5-340.7-66.6v-356.3l-310.7-73.86c6.7-27.99 10.3-57.16 10.3-87.18 0-183.11-130.7-335.64-303.7-369.63 12.7-53.48 27.4-111.62 44.4-173.49h3430.9c16.8 61.87 31.7 120.01 44.4 173.49-173.2 33.99-303.8 186.52-303.8 369.63" fill="#00204f"/>
  </g>
  <path d="m-136.22-86.78c5.1929-0.90664 7.8034-1.263 13.039-1.7921 0.127 1.27 0.19403 1.9085 0.32103 3.1785-1.7251 0.17639-2.5859 0.27164-4.3074 0.48684 0.48331 3.87 0.72672 5.8032 1.2136 9.6732-1.5981 0.19756-2.3954 0.30692-3.9864 0.54681-0.57856-3.8559-0.86784-5.782-1.4429-9.6379-1.718 0.25753-2.5753 0.39511-4.2862 0.69497-0.22225-1.2594-0.33161-1.8909-0.55034-3.1503" fill="#fff"/>
  <g transform="matrix(.035635 0 0 -.035635 -689.09 245.12)">
   <path d="m15962 9371.7c129.6 10.99 194.6 14.46 324.5 17.13 0.7-30.98 1-46.43 1.6-77.51-80.1-1.69-120.1-3.27-200.2-8.22 1.4-22.97 2.2-34.55 3.6-57.62 73.4 4.55 110.1 6.04 183.6 7.82 0.6-29.6 1-44.45 1.7-74.05-72.3-1.68-108.5-3.26-180.8-7.62 1.7-28.61 2.6-42.97 4.3-71.48 79 4.76 118.6 6.34 197.7 8.02 0.7-32.96 1-49.4 1.7-82.27-123-2.47-184.4-5.74-307-16.13-12.3 144.83-18.4 217.2-30.7 361.93" fill="#fff"/>
  </g>
  <g transform="matrix(.03661 0 0 -.03661 -689.09 245.12)">
   <path d="m16150 8917.3c-14.1 51.45-21.4 77.18-36.4 128.45-17.9-50.21-26.7-75.45-43.8-125.85 32-0.77 48.1-1.25 80.2-2.6zm19.9-77.38c-50.4 2.31-75.6 3.08-126 4.05-7.5-23.22-11.1-34.79-18.4-58.11-44.8 0.68-67.2 0.77-111.9 0.29 43.1 118.72 90 236.86 140.1 352.87 51.4-1.06 77.2-1.83 128.6-4.14 42.6-119 81.8-239.84 117.3-361.06-45.9 3.37-68.8 4.72-114.7 7.03-5.9 23.61-8.9 35.46-15 59.07" fill="#fff"/>
  </g>
  <g transform="matrix(.037768 0 0 -.037768 -689.09 245.12)">
   <path d="m15886 8841.6c60-5.23 90-8.31 149.8-15.32 13.3-85.55 19.5-128.33 30.8-213.99 32.7 79.87 49.5 119.65 84.1 198.96 59.7-8.5 89.5-13.17 149-23.54-23.6-135.07-35.4-202.6-58.9-337.57-34.5 5.98-51.7 8.78-86.2 14.11 15.9 103.3 24 154.95 39.9 258.26-44.2-98.91-65.5-148.61-106.5-248.46-31.2 4.39-46.9 6.45-78.2 10.18-14 107.05-21.9 160.57-39.1 267.52-11-103.96-16.5-155.99-27.5-259.95-34.8 3.74-52.1 5.42-86.8 8.41 11.9 136.56 17.7 204.84 29.6 341.39" fill="#fff"/>
  </g>
 </g>
</svg>
