<?xml version="1.0" encoding="UTF-8"?>
<svg width="195.85mm" height="155.11mm" version="1.1" viewBox="0 0 195.85 155.11" xmlns="http://www.w3.org/2000/svg" xmlns:cc="http://creativecommons.org/ns#" xmlns:dc="http://purl.org/dc/elements/1.1/" xmlns:rdf="http://www.w3.org/1999/02/22-rdf-syntax-ns#">
 <metadata>
  <rdf:RDF>
   <cc:Work rdf:about="">
    <dc:format>image/svg+xml</dc:format>
    <dc:type rdf:resource="http://purl.org/dc/dcmitype/StillImage"/>
    <dc:title/>
   </cc:Work>
  </rdf:RDF>
 </metadata>
 <g transform="translate(-7.9084 -70.614)">
  <path d="m94.666 134.16c3.5013-1.3194 7.0926-1.972 10.635-2.0285l-66.732-61.514 54.58 59.983-35.443-32.251 30.519 35.341-42.879-38.128 36.661 41.97-30.909-26.649 22.943 25.217-61.777-56.212 47.278 51.957-21.607-19.66 35.75 40.598-46.188-40.89 46.69 51.312c0.24624-12.573 8.0123-24.345 20.479-29.044" fill="#dba527"/>
  <path d="m179.05 182.02h-146.44v21.17h146.44v-21.17" fill="#dba527"/>
  <g fill="#00204f">
   <path d="m81.819 148.38 7.1395-0.33161c1.6182-0.0741 3.1806 0.59972 4.2344 1.8309l3.0794 3.5983c1.1342 1.3229 1.5371 3.1256 1.0756 4.8048l-1.6309 5.9443c-0.44521 1.6228-1.6397 2.9316-3.2135 3.5242l-4.4753 1.6863c-1.5741 0.5962-3.3366 0.39864-4.7417-0.52564l-5.963-3.9229c-0.24588-5.9196 1.3674-11.719 4.4954-16.609zm12.128-4.2016 1.9632-7.1543c5.6998-2.1131 11.656-2.2789 17.138-0.83961l2.6106 6.9286c0.59267 1.5699 0.39511 3.3302-0.52564 4.7343l-2.5153 3.8347c-0.92427 1.4076-2.4694 2.286-4.1487 2.3636l-6.2022 0.28575c-1.6185 0.0776-3.181-0.59972-4.2344-1.8309l-3.0103-3.5137c-1.1338-1.3264-1.5371-3.1256-1.0756-4.8084zm27.05 2.2895 7.2637-0.33514c1.7639 2.2366 3.2209 4.7766 4.2792 7.5812 1.0689 2.8328 1.6475 5.7291 1.7956 8.6007l-5.6974 4.5579c-1.3264 1.0583-3.0833 1.4146-4.7166 0.94897l-4.5367-1.2876c-1.6016-0.45508-2.8928-1.6439-3.4784-3.1997l-2.1872-5.7997c-0.59267-1.5734-0.39864-3.3338 0.52564-4.7378l2.6035-3.9652c0.92428-1.4076 2.4659-2.286 4.1487-2.3636zm-41.161 33.288h4.3166l1.3575-4.946c0.44521-1.6228 1.6401-2.9316 3.2135-3.5242l4.4753-1.6898c1.5737-0.59266 3.3366-0.39511 4.7413 0.52917l5.0701 3.3373c1.4679 0.96308 2.3555 2.6 2.3657 4.3568l0.0113 1.9368h1.9713l-0.0141-2.3319c-7e-3 -1.6051 0.71967-3.1291 1.972-4.131l4.8719-3.8947c1.3229-1.0619 3.0833-1.4146 4.7166-0.9525l4.572 1.3018c1.6016 0.45508 2.8928 1.6404 3.4819 3.1997l2.5435 6.7486c-0.0141 0.0212-0.0282 0.0423-0.0423 0.06h2.353c4.7625-7.7646 6.0254-17.572 2.5718-26.737-5.9337-15.744-23.569-23.724-39.314-17.791-15.744 5.9337-23.724 23.573-17.79 39.314 0.69709 1.8486 1.5568 3.5913 2.5545 5.2141"/>
   <path d="m155.1 179.76c1.651-5.0835 2.5471-10.502 2.5471-16.129 0-28.889-23.506-52.395-52.395-52.395-5.734 0-11.254 0.9278-16.423 2.6388l5.8219 5.3658c3.4145-0.82198 6.979-1.263 10.646-1.263 24.977 0 45.226 20.249 45.226 45.226 0 5.8455-1.1077 11.43-3.1256 16.556h7.7011"/>
   <path d="m105.26 107.7c30.836 0 55.922 25.086 55.922 55.922 0 5.6056-0.83608 11.021-2.3777 16.129h6.798c1.4464-5.274 2.219-10.823 2.219-16.556 0-34.526-27.989-62.516-62.516-62.516-8.9232 0-17.408 1.8732-25.087 5.2423l5.6801 5.2352c6.0357-2.2331 12.559-3.4572 19.362-3.4572"/>
   <path d="m121.47 205.45c-5.0236 1.9226-10.474 2.981-16.171 2.981-5.6981 0-11.148-1.0583-16.17-2.981h-29.91c11.429 12.457 27.841 20.271 46.079 20.271s34.65-7.814 46.08-20.271h-29.908"/>
   <path d="m55.407 179.76h7.7936c-2.0175-5.1259-3.1263-10.71-3.1263-16.556 0-3.6971 0.44768-7.2919 1.2859-10.735l-5.5668-6.1172c-1.8965 5.4116-2.9316 11.225-2.9316 17.279 0 5.6268 0.89641 11.045 2.5453 16.129"/>
   <path d="m51.711 179.76c-1.5423-5.1082-2.377-10.523-2.377-16.129 0-7.1261 1.3427-13.945 3.7842-20.221l-5.0024-5.4963c-3.4255 7.7329-5.3319 16.291-5.3319 25.291 0 5.7326 0.77541 11.282 2.22 16.556h6.707"/>
   <path d="m178.95 204.48h-14.108v6.029z"/>
  </g>
  <path d="m203.76 212.13-38.915 0.16581 15.903-7.2143v-14.573h22.927l-11.857 11.155 11.942 10.467" fill="#dba527"/>
  <path d="m32.716 204.66h14.107v6.029z" fill="#00204f"/>
  <path d="m7.9084 212.31 38.914 0.1658-15.903-7.2143v-14.573h-22.927l11.857 11.155-11.941 10.467" fill="#dba527"/>
  <g fill="#00204f">
   <path d="m36.277 184.33h12.485v3.5101h-7.4126v2.854h6.3317v3.2985h-6.3317v6.6781h-5.0722v-16.341"/>
   <path d="m57.038 192.53c0 1.651 0.30656 2.8363 0.91969 3.556 0.61313 0.72319 1.4471 1.083 2.5023 1.083 1.0851 0 1.9248-0.35277 2.5192-1.0583 0.59478-0.70556 0.89182-1.9756 0.89182-3.8029 0-1.5381-0.31044-2.6635-0.93063-3.3726-0.62054-0.70908-1.4619-1.0619-2.5248-1.0619-1.0181 0-1.8355 0.35983-2.4525 1.0795-0.61666 0.71967-0.92498 1.9156-0.92498 3.5772zm-5.0497-0.0212c0-2.667 0.74295-4.7449 2.2292-6.2301 1.4866-1.4887 3.5564-2.2296 6.2092-2.2296 2.7199 0 4.8151 0.73025 6.2869 2.1908 1.4714 1.4605 2.207 3.5031 2.207 6.1348 0 1.9121-0.32138 3.4749-0.96414 4.699-0.64276 1.2241-1.5716 2.1731-2.7869 2.854-1.2146 0.68086-2.7291 1.0195-4.5424 1.0195-1.8433 0-3.368-0.2928-4.5755-0.88194-1.2079-0.58561-2.1869-1.5134-2.9372-2.787-0.75106-1.27-1.1261-2.861-1.1261-4.7696"/>
   <path d="m77.196 192.53c0 1.651 0.30656 2.8363 0.91969 3.556 0.61313 0.72319 1.4471 1.083 2.5026 1.083 1.0851 0 1.9244-0.35277 2.5192-1.0583 0.59443-0.70556 0.89182-1.9756 0.89182-3.8029 0-1.5381-0.3108-2.6635-0.93098-3.3726-0.62054-0.70908-1.4619-1.0619-2.5245-1.0619-1.0185 0-1.8359 0.35983-2.4525 1.0795-0.61701 0.71967-0.92534 1.9156-0.92534 3.5772zm-5.0497-0.0212c0-2.667 0.7433-4.7449 2.2296-6.2301 1.4863-1.4887 3.556-2.2296 6.2089-2.2296 2.7199 0 4.8154 0.73025 6.2869 2.1908s2.207 3.5031 2.207 6.1348c0 1.9121-0.32138 3.4749-0.96414 4.699-0.64276 1.2241-1.5716 2.1731-2.7866 2.854-1.215 0.68086-2.7291 1.0195-4.5424 1.0195-1.8433 0-3.3683-0.2928-4.5759-0.88194-1.2076-0.58561-2.1865-1.5134-2.9372-2.787-0.75071-1.27-1.1261-2.861-1.1261-4.7696"/>
   <path d="m91.201 184.33h15.35v4.0358h-5.1502v12.305h-5.0493v-12.305h-5.1502v-4.0358"/>
   <path d="m115.08 197.16h2.5718c0.87136 0 1.4852-0.15522 1.8415-0.46214 0.35631-0.31044 0.5327-0.72319 0.5327-1.2453 0-0.48331-0.17639-0.87137-0.52917-1.1642-0.35278-0.29281-0.97014-0.44097-1.8556-0.44097h-2.5612zm0-6.4206h2.1943c0.78669 0 1.337-0.13759 1.6439-0.40923 0.30692-0.27164 0.46214-0.66322 0.46214-1.1748 0-0.47625-0.15522-0.84666-0.46214-1.1148-0.30691-0.26812-0.84666-0.40217-1.6122-0.40217h-2.226zm-5.0976-6.41h9.4544c1.5769 0 2.7834 0.38806 3.6266 1.1677 0.84667 0.78316 1.2665 1.7498 1.2665 2.8998 0 0.96661-0.29986 1.7956-0.90311 2.4871-0.40216 0.45862-0.98777 0.82198-1.7604 1.0901 1.1748 0.28222 2.0391 0.76905 2.5929 1.457s0.82903 1.5487 0.82903 2.5894c0 0.85019-0.19756 1.6087-0.58914 2.286-0.39511 0.67733-0.93486 1.2136-1.6192 1.6051-0.42334 0.24694-1.0619 0.42333-1.9156 0.53622-1.1359 0.14817-1.8909 0.22225-2.2648 0.22225h-8.7171v-16.341"/>
   <path d="m137.49 194.44-1.8062-5.8738-1.7815 5.8738zm1.0478 3.5313h-5.7326l-0.79728 2.6988h-5.1576l6.1419-16.341h5.5104l6.1383 16.341h-5.2881l-0.81492-2.6988"/>
   <path d="m147.38 184.33h5.0482v12.315h7.8811v4.0252h-12.929v-16.341"/>
   <path d="m163.75 184.33h5.0482v12.315h7.8811v4.0252h-12.929v-16.341"/>
  </g>
  <g fill="#fff">
   <path d="m93.842 217.36 1.803 0.5715c-0.27622 1.0054-0.73589 1.7498-1.379 2.2401-0.64312 0.48684-1.458 0.73025-2.4469 0.73025-1.2231 0-2.2281-0.41627-3.0159-1.2524-0.78704-0.83608-1.1811-1.9791-1.1811-3.429 0-1.531 0.39546-2.7234 1.1878-3.5701 0.79163-0.85019 1.832-1.2735 3.1221-1.2735 1.1268 0 2.0419 0.33514 2.7453 0.99837 0.4191 0.39511 0.73342 0.95955 0.94298 1.6969l-1.8411 0.44097c-0.10901-0.47625-0.3362-0.85372-0.68157-1.1324-0.34537-0.27516-0.76588-0.41275-1.2594-0.41275-0.68262 0-1.2368 0.24342-1.6619 0.73378-0.4251 0.49036-0.63747 1.2841-0.63747 2.3812 0 1.1642 0.20885 1.9932 0.62795 2.4871 0.41874 0.49389 0.96344 0.74084 1.6334 0.74084 0.49459 0 0.91969-0.15523 1.2756-0.4692 0.35595-0.31397 0.61172-0.80786 0.76623-1.4817"/>
   <path d="m97.934 220.75v-9.1369h1.8595v7.5847h4.6242v1.5522h-6.4837"/>
   <path d="m106.37 211.54h1.8592v4.9883c0 0.79022 0.0247 1.3053 0.0705 1.5381 0.0776 0.37748 0.26811 0.68086 0.56797 0.90664 0.29987 0.22931 0.70909 0.3422 1.2277 0.3422 0.52917 0 0.92781-0.10584 1.1959-0.32103 0.26811-0.2152 0.42686-0.47978 0.4833-0.79728 0.0529-0.31397 0.0811-0.83255 0.0811-1.5628v-5.0941h1.8591v4.8366c0 1.1042-0.0494 1.8874-0.15169 2.3424-0.0988 0.45861-0.28575 0.84314-0.55386 1.1571-0.27164 0.31398-0.63148 0.56445-1.083 0.75142-0.45509 0.18697-1.0442 0.27869-1.7745 0.27869-0.87842 0-1.5452-0.1023-2.0002-0.30338-0.45509-0.20462-0.81492-0.4692-1.076-0.79375-0.26458-0.32456-0.44097-0.66323-0.52211-1.0195-0.12347-0.52917-0.18345-1.3088-0.18345-2.3389v-4.9107"/>
   <path d="m118.19 216.73v2.4624h1.7216c0.67028 0 1.0936-0.0212 1.2735-0.0564 0.27869-0.0529 0.50447-0.17287 0.67733-0.37042 0.17286-0.19403 0.26106-0.45508 0.26106-0.77964 0-0.27869-0.067-0.51153-0.20109-0.70556-0.13405-0.1905-0.32808-0.33161-0.58208-0.4198-0.254-0.0882-0.80433-0.13053-1.6475-0.13053zm0-3.6654v2.1308h1.2206c0.72319 0 1.1748-0.0106 1.3476-0.0318 0.32103-0.0388 0.5715-0.14817 0.75141-0.32809 0.18345-0.18344 0.27517-0.42333 0.27517-0.71966 0-0.28575-0.0811-0.51859-0.23636-0.69497-0.15875-0.17992-0.39158-0.28575-0.70203-0.32456-0.18344-0.0212-0.71261-0.0318-1.5875-0.0318zm-1.8591-1.5311h3.6795c0.73025 0 1.2735 0.0282 1.6334 0.0882 0.35631 0.0635 0.67733 0.1905 0.95956 0.381 0.28222 0.19403 0.51858 0.45155 0.70555 0.76905 0.1905 0.32103 0.28575 0.68087 0.28575 1.0795 0 0.43039-0.11642 0.8255-0.34925 1.1853-0.23283 0.35983-0.55033 0.63147-0.94544 0.81139 0.56091 0.16227 0.9913 0.44097 1.2947 0.83608 0.29986 0.39511 0.45156 0.85725 0.45156 1.3899 0 0.41628-0.0988 0.8255-0.29281 1.2206-0.19403 0.39511-0.46214 0.71261-0.79728 0.94897-0.33866 0.23636-0.75494 0.381-1.2488 0.43744-0.31044 0.0317-1.0583 0.0529-2.2401 0.0635h-3.1362v-9.211"/>
   <path d="m83.255 211.71c0 0.82903-0.67098 1.4993-1.4993 1.4993-0.82797 0-1.4993-0.67027-1.4993-1.4993 0-0.8255 0.67134-1.4993 1.4993-1.4993 0.82832 0 1.4993 0.67381 1.4993 1.4993"/>
   <path d="m131.94 211.71c0 0.82903-0.6738 1.4993-1.4993 1.4993-0.82903 0-1.4993-0.67027-1.4993-1.4993 0-0.8255 0.67028-1.4993 1.4993-1.4993 0.8255 0 1.4993 0.67381 1.4993 1.4993"/>
  </g>
 </g>
</svg>
