<?xml version="1.0" encoding="UTF-8"?>
<svg width="150.68mm" height="182.06mm" version="1.1" viewBox="0 0 150.68 182.06" xmlns="http://www.w3.org/2000/svg" xmlns:cc="http://creativecommons.org/ns#" xmlns:dc="http://purl.org/dc/elements/1.1/" xmlns:rdf="http://www.w3.org/1999/02/22-rdf-syntax-ns#">
 <metadata>
  <rdf:RDF>
   <cc:Work rdf:about="">
    <dc:format>image/svg+xml</dc:format>
    <dc:type rdf:resource="http://purl.org/dc/dcmitype/StillImage"/>
    <dc:title/>
   </cc:Work>
  </rdf:RDF>
 </metadata>
 <g transform="translate(47.369 99.346)">
  <g fill="#00204f">
   <path d="m47.207 65.888c-5.9178 2.4836-12.417 3.8594-19.237 3.8594s-13.318-1.3758-19.236-3.8594c5.7919 4.5861 12.184 8.6113 19.236 11.85 7.0531-3.2385 13.444-7.2637 19.237-11.85"/>
   <path d="m-24.463-32.438c14.005-14.005 32.627-21.717 52.433-21.717 19.807 0 38.428 7.7117 52.434 21.717 6.0325 6.0325 10.894 12.926 14.479 20.394 1.1836-4.0217 2.1509-7.7294 2.933-11-6.8718-1.3511-12.057-7.4048-12.057-14.668 0-1.1924 0.14358-2.3495 0.40675-3.4608l-12.328-2.9316v-14.139c-30.18-6.9815-61.554-6.9815-91.734 0h-2.65e-4v14.139l-12.328 2.9316c0.26317 1.1112 0.40675 2.2684 0.40675 3.4608 0 7.2637-5.1851 13.317-12.057 14.668 0.78211 3.2702 1.7498 6.9779 2.9333 11.003 3.5842-7.4718 8.4462-14.365 14.479-20.398"/>
   <path d="m93.882-8.7388c-11.09-25.4-36.425-43.155-65.912-43.155-29.486 0-54.822 17.755-65.912 43.155 3.7356 12.001 9.3214 26.331 17.489 40.185-0.86607-3.676-1.3268-7.5071-1.3268-11.451 0-27.474 22.274-49.749 49.749-49.749 27.476 0 49.749 22.274 49.749 49.749 0 3.9441-0.46038 7.7752-1.3264 11.451 8.1675-13.854 13.753-28.183 17.489-40.185"/>
  </g>
  <path d="m27.97-68.002c-15.758 0-31.533 1.7992-46.886 5.3481l-3.5034 0.81139v14.164l-8.8519 2.1026-2.1985 0.52564-2.1982 0.52211 1.0421 4.3956c0.18909 0.80081 0.28504 1.6122 0.28504 2.4201 0 4.9706-3.5352 9.2745-8.4056 10.231l-2.3114 0.45155-2.3114 0.45508 0.54751 2.2895 0.54751 2.2931c3.2396 13.554 9.4495 33.842 20.639 53.52 13.572 23.865 30.972 40.795 51.718 50.32l0.94368 0.43391 0.94333 0.43392 0.94368-0.43392 0.94368-0.43391c20.746-9.525 38.147-26.455 51.718-50.32 11.189-19.678 17.399-39.966 20.639-53.52l0.54716-2.2931 0.54786-2.2895-2.3118-0.45508-2.311-0.45155c-4.8708-0.95603-8.4056-5.2599-8.4056-10.231 0-0.80786 0.0959-1.6192 0.28469-2.4201l0.52141-2.1978 0.52105-2.1978-2.1985-0.52211-2.1982-0.52564-8.8519-2.1026v-14.164l-3.5034-0.81139c-15.353-3.5489-31.128-5.3481-46.886-5.3481zm0 2.2613c15.587 0 31.19 1.778 46.377 5.2917l1.7519 0.40569v14.15l10.59 2.5188 2.1985 0.52211-0.52141 2.2013c-0.2293 0.96661-0.34572 1.9544-0.34572 2.9386 0 6.0501 4.3028 11.285 10.231 12.45l2.3114 0.45156-0.54751 2.2931c-3.2053 13.413-9.3472 33.482-20.405 52.927-13.333 23.446-30.389 40.061-50.696 49.385l-0.94368 0.43392-0.94333-0.43392c-20.307-9.3239-37.363-25.94-50.696-49.385-11.058-19.445-17.2-39.515-20.405-52.927l-0.54751-2.2931 2.3114-0.45156c5.9281-1.1642 10.231-6.3994 10.231-12.45 0-0.98425-0.11642-1.972-0.34608-2.9386l-0.52105-2.2013 2.1985-0.52211 10.59-2.5188v-14.15l1.7519-0.40569c15.186-3.5137 30.789-5.2917 46.376-5.2917" fill="#dba527"/>
  <g fill="#00204f">
   <path d="m27.97 62.819c-23.691 0-42.965-19.276-42.965-42.965 0-23.693 19.274-42.968 42.965-42.968 23.691 0 42.966 19.276 42.966 42.968 0 23.689-19.274 42.965-42.966 42.965zm2.64e-4 -90.311c-26.185 0-47.488 21.304-47.488 47.487 0 7.0062 1.5254 13.66 4.2598 19.653 4.6387 6.8121 9.9691 13.36 16.081 19.29 7.6994 5.3834 17.06 8.5478 27.147 8.5478s19.448-3.1644 27.147-8.5478c6.1122-5.9302 11.442-12.478 16.081-19.29 2.7344-5.9937 4.2598-12.647 4.2598-19.653 0-26.183-21.303-47.487-47.488-47.487"/>
   <path d="m-10.098 20.055 8.0052-5.8138c1.8824-1.3688 4.3201-1.7145 6.5073-0.92075l5.805 2.1026c2.0316 0.73731 3.6103 2.3671 4.2781 4.4238l2.559 7.8775c0.69392 2.1343 0.32244 4.4732-0.99942 6.29l-3.5994 4.9424c-1.319 1.8133-3.4251 2.8857-5.6663 2.8857h-9.8732c-4.378-6.163-6.9734-13.677-7.0164-21.788zm26.16-36.357 7.7043 5.5951c1.815 1.3194 2.8889 3.429 2.8889 5.6727v6.3782c0 2.2437-1.0739 4.3533-2.8889 5.6727l-6.6506 4.8295c-1.8821 1.3688-4.3198 1.711-6.507 0.92075l-5.9383-2.1519c-2.032-0.73731-3.6107-2.3671-4.2785-4.4238l-2.946-9.0664c4.6323-6.2054 11.114-10.95 18.616-13.427zm16.088 48.937c2.2214 0 4.3113 1.0548 5.6332 2.8399l3.7419 5.0553c1.3483 1.8203 1.7332 4.1804 1.0329 6.3359l-3.0071 9.2534c-3.6537 1.1677-7.5434 1.8062-11.581 1.8062-3.9991 0-7.855-0.62442-11.479-1.771l-2.9986-9.2287c-0.69391-2.1378-0.32244-4.4768 0.99942-6.29l3.7236-5.1153c1.319-1.8133 3.4251-2.8857 5.6663-2.8857zm-2.8642-37.67c0-2.2437 1.0742-4.3533 2.8892-5.6691l7.7043-5.5986c7.5632 2.4977 14.085 7.299 18.725 13.578l-2.8166 8.6677c-0.66217 2.0391-2.2211 3.6618-4.2316 4.4062l-6.2773 2.3248c-2.1982 0.81492-4.6577 0.47625-6.5539-0.89958l-6.5504-4.759c-1.815-1.3194-2.8892-3.429-2.8892-5.6727zm36.758 24.888c0 8.2162-2.6254 15.826-7.0697 22.056h-9.6224c-2.2214 0-4.3109-1.0548-5.6328-2.8399l-3.7744-5.0976c-1.3483-1.8203-1.7332-4.1804-1.0329-6.3359l2.57-7.9093c0.66252-2.0391 2.2214-3.6618 4.2316-4.4062l5.8854-2.1802c2.1978-0.81492 4.6574-0.47625 6.5539 0.90311l7.8892 5.7326c0 0.0247 2e-3 0.0494 2e-3 0.0776zm-38.074 40.704c22.445 0 40.705-18.26 40.705-40.704 0-22.447-18.26-40.707-40.705-40.707-22.444 0-40.704 18.26-40.704 40.707 0 22.444 18.259 40.704 40.704 40.704"/>
   <path d="m28.069-99.346 3.3366 6.7628 7.4612 1.083-5.3989 5.2634 1.2746 7.433-6.6735-3.5101-6.6735 3.5101 1.2746-7.433-5.3993-5.2634 7.4612-1.083 3.3369-6.7628"/>
   <path d="m3.404-89.151 2.6151 5.2987 5.8476 0.85019-4.2316 4.124 0.99907 5.8244-5.2303-2.7517-5.2299 2.7517 0.99871-5.8244-4.2312-4.124 5.8476-0.85019 2.6148-5.2987"/>
   <path d="m52.536-89.151-2.6148 5.2987-5.8476 0.85019 4.2312 4.124-0.99872 5.8244 5.2299-2.7517 5.2303 2.7517-0.99907-5.8244 4.2312-4.124-5.8473-0.85019-2.6151-5.2987"/>
  </g>
  <g fill="#fff">
   <path d="m-33.245-5.9272 3.0067-6.029 1.8292 0.91369-1.8902 3.7888 2.2528 1.1218 1.7664-3.5384 1.8143 0.90311-1.7664 3.5419 3.9652 1.9791-1.1169 2.2366-9.8612-4.9177"/>
   <path d="m-22.087-14.404c1.7067 1.3194 3.5302 1.4499 4.5519 0.13053 1.0315-1.33 0.35524-3.0762-1.3388-4.3886-1.5642-1.21-3.4897-1.5028-4.5417-0.14464-1.0312 1.3335-0.36512 3.0903 1.3286 4.4027zm4.7611-6.3888c2.8575 2.2154 3.248 5.2881 1.2749 7.8352-2.0027 2.5859-5.1269 2.5859-7.6094 0.66322-2.612-2.0214-3.2724-5.2035-1.2795-7.7752 2.0733-2.6776 5.2091-2.5859 7.614-0.72319"/>
   <path d="m-13.041-24.582c1.3744 1.6651 3.1246 2.1908 4.4101 1.1289 1.2989-1.0724 1.022-2.921-0.34184-4.5755-1.2598-1.524-3.0738-2.2296-4.3974-1.1395-1.2986 1.0724-1.0347 2.9351 0.32914 4.5861zm6.0459-5.1858c2.3008 2.7869 2.0066 5.8702-0.4766 7.9234-2.5213 2.0814-5.5686 1.397-7.5674-1.0231-2.1033-2.5471-2.0493-5.7926 0.45932-7.8669 2.6095-2.1555 5.648-1.3758 7.5847 0.96661"/>
   <path d="m-4.0657-35.254-2.5989 1.4146-1.0015-1.838 7.4376-4.0534 1.0019 1.838-2.6423 1.4393 4.2732 7.8387-2.1967 1.1994-4.2732-7.8387"/>
   <path d="m8.8238-33.313c0.24342-0.04586 0.52317-0.13758 0.92745-0.26811 1.0728-0.34925 1.8898-1.0619 1.5303-2.1661-0.34431-1.0583-1.4295-1.1677-2.6113-0.78317l-0.80892 0.26458zm-1.5141-4.6496 0.77752-0.254c1.2442-0.40569 1.7452-1.1359 1.4922-1.9121-0.25823-0.79375-1.0015-1.016-2.0743-0.66675-0.51329 0.1658-0.79834 0.29633-0.9906 0.39158zm-3.6544-3.2456c0.58138-0.32808 1.8105-0.83256 2.9923-1.2171 1.446-0.4692 2.3781-0.62089 3.2868-0.41628 0.8576 0.1517 1.6192 0.69497 1.9279 1.6439 0.30374 0.93133 0.04304 1.9791-0.9966 2.8011l0.0099 0.02822c1.3039-0.0635 2.4839 0.55033 2.9245 1.905 0.30868 0.94897 0.11642 1.8344-0.36442 2.5788-0.56445 0.85372-1.7283 1.6087-3.8118 2.2895-1.1663 0.37747-2.0623 0.58561-2.6162 0.68086l-3.3525-10.294"/>
   <path d="m21.945-39.201-0.95356-2.2401c-0.27093-0.62795-0.56092-1.4182-0.79904-2.0496l-0.03281 0.0071c-0.08643 0.66675-0.15169 1.5134-0.25647 2.1696l-0.37782 2.3989zm-2.5605 2.1766-0.45085 2.9034-2.5665 0.29986 2.0655-11.338 3.2484-0.381 4.6747 10.552-2.6635 0.31045-1.1733-2.7129-3.1344 0.36689"/>
   <path d="m29.399-45.872 2.4963 0.16581-0.59761 8.9112 4.3727 0.2928-0.14041 2.0884-6.8686-0.46214 0.73766-10.996"/>
   <path d="m40.366-44.74 2.4349 0.57503-2.0528 8.6889 4.2644 1.0089-0.48119 2.0355-6.6992-1.584 2.534-10.724"/>
   <path d="m56.2-37.264-2.6356-1.3476 0.95179-1.8627 7.5434 3.8488-0.95179 1.8662-2.6797-1.3688-4.0591 7.9516-2.2281-1.1359 4.0591-7.9516"/>
   <path d="m66.894-25.362-3.2388-2.4377-1.5741 2.0884 3.6177 2.727-1.2301 1.6298-5.6159-4.2298 6.6315-8.8018 5.4331 4.0922-1.2301 1.6334-3.4346-2.5894-1.3772 1.8309 3.2389 2.4377-1.2203 1.6192"/>
   <path d="m73.437-18.888 1.2686-2.0814c0.35243-0.58561 0.82515-1.2806 1.1994-1.838l-0.0219-0.02469c-0.59408 0.3175-1.3215 0.75847-1.9142 1.0513l-2.1703 1.0901zm-3.26-0.81492-2.6215 1.3194-1.7371-1.9121 10.422-4.9177 2.1992 2.4201-5.8586 9.9413-1.8034-1.9826 1.5219-2.5329-2.1223-2.3354"/>
   <path d="m82.149-5.0276c1.1345-0.68439 2.5125-1.5028 3.9141-2.2789l-0.0236-0.04586c-1.3966 0.38453-2.9916 0.74436-4.3275 0.99836l-4.4115 0.91369-0.94368-1.7039 3.1623-3.0974c0.95532-0.94191 2.146-2.032 3.278-2.9598l-0.0162-0.02822c-1.3331 0.66322-2.8441 1.4464-4.0852 2.0426l-3.7564 1.8556-1.118-2.0144 9.9804-4.7308 1.6094 2.9034-2.6949 2.727c-0.94897 0.92075-1.984 1.8874-2.9947 2.727l0.0236 0.04233c1.2661-0.34572 2.7213-0.7232 3.9684-1.0019l3.7747-0.74789 1.5776 2.8469-9.3461 5.8738-1.1814-2.1308 3.6107-2.1908"/>
  </g>
 </g>
</svg>
