<?xml version="1.0" encoding="UTF-8" standalone="no"?>
<svg
   xmlns:dc="http://purl.org/dc/elements/1.1/"
   xmlns:cc="http://creativecommons.org/ns#"
   xmlns:rdf="http://www.w3.org/1999/02/22-rdf-syntax-ns#"
   xmlns:svg="http://www.w3.org/2000/svg"
   xmlns="http://www.w3.org/2000/svg"
   xmlns:sodipodi="http://sodipodi.sourceforge.net/DTD/sodipodi-0.dtd"
   xmlns:inkscape="http://www.inkscape.org/namespaces/inkscape"
   sodipodi:docname="football_team1.svg"
   inkscape:version="1.0 (4035a4fb49, 2020-05-01)"
   id="svg8"
   version="1.1"
   viewBox="0 0 169.09778 151.24298"
   height="151.24298mm"
   width="169.09778mm">
  <defs
     id="defs2">
    <clipPath
       clipPathUnits="userSpaceOnUse"
       id="clipPath1157">
      <path
         d="m 3360,15255.1 c -512.26,0 -929.01,416.7 -929.01,929 0,512.3 416.75,929 929.01,929 512.28,0 929.04,-416.7 929.04,-929 0,-512.3 -416.76,-929 -929.04,-929 z m 1095.1,1920 h -297.03 v 128.2 l -798.06,294.2 -798.05,-294.2 v -128.2 h -297.03 c -0.58,-186 -151.48,-336.5 -337.57,-336.5 v -1917.8 c 0,-443.4 255.95,-847 657.07,-1036.1 l 775.58,-365.6 775.59,365.6 c 401.11,189.1 657.07,592.7 657.07,1036.1 v 1917.8 c -186.09,0 -337,150.5 -337.57,336.5 z"
         id="path1155" />
    </clipPath>
  </defs>
  <sodipodi:namedview
     fit-margin-bottom="0"
     fit-margin-right="0"
     fit-margin-left="0"
     fit-margin-top="0"
     inkscape:window-maximized="0"
     inkscape:window-y="312"
     inkscape:window-x="312"
     inkscape:window-height="967"
     inkscape:window-width="1545"
     showgrid="false"
     inkscape:document-rotation="0"
     inkscape:current-layer="layer1"
     inkscape:document-units="mm"
     inkscape:cy="285.81352"
     inkscape:cx="319.55486"
     inkscape:zoom="0.35"
     inkscape:pageshadow="2"
     inkscape:pageopacity="0.0"
     borderopacity="1.0"
     bordercolor="#666666"
     pagecolor="#ffffff"
     id="base" />
  <metadata
     id="metadata5">
    <rdf:RDF>
      <cc:Work
         rdf:about="">
        <dc:format>image/svg+xml</dc:format>
        <dc:type
           rdf:resource="http://purl.org/dc/dcmitype/StillImage" />
        <dc:title></dc:title>
      </cc:Work>
    </rdf:RDF>
  </metadata>
  <g
     transform="translate(-21.284443,-72.545173)"
     id="layer1"
     inkscape:groupmode="layer"
     inkscape:label="Livello 1">
    <g
       style="display:inline"
       transform="matrix(0.03808589,0,0,-0.03808589,-12.898911,696.96215)"
       id="g1139">
      <path
         id="path1141"
         style="fill:#00204f;fill-opacity:1;fill-rule:nonzero;stroke:none"
         d="m 3112.26,14130.3 c -474.49,0 -860.52,386 -860.52,860.5 0,474.5 386.03,860.5 860.52,860.5 474.51,0 860.53,-386 860.53,-860.5 0,-474.5 -386.02,-860.5 -860.53,-860.5 z m 1014.35,1778.4 h -275.13 v 118.8 l -739.21,272.5 -739.21,-272.5 v -118.8 h -275.13 c -0.54,-172.2 -140.31,-311.7 -312.68,-311.7 v -1776.3 c 0,-410.8 237.08,-784.7 608.62,-959.8 l 718.4,-338.6 718.4,338.6 c 371.53,175.1 608.62,549 608.62,959.8 V 15597 c -172.37,0 -312.15,139.5 -312.68,311.7" />
    </g>
    <g
       style="display:inline"
       transform="matrix(0.03830779,0,0,-0.03830779,-12.898911,696.96215)"
       id="g1143">
      <path
         id="path1145"
         style="fill:#00204f;fill-opacity:1;fill-rule:nonzero;stroke:none"
         d="m 3094.25,16300 -20.42,-7.5 -764.45,-281.9 -38.61,-14.2 v -41.1 -50.1 h -214.41 -58.84 l -0.19,-58.9 -0.09,-29.4 c -0.38,-122.2 -100.11,-221.7 -222.33,-221.7 h -29.51 -59.03 v -59 -1795.6 c 0,-440.4 257.45,-846.4 655.88,-1034.2 l 726.84,-342.6 25.16,-11.9 25.16,11.9 726.83,342.6 c 398.44,187.8 655.89,593.8 655.89,1034.2 v 1795.6 59 h -59.03 -29.51 c -122.21,0 -221.95,99.5 -222.33,221.7 l -0.09,29.4 -0.18,58.9 h -58.85 -214.41 v 50.1 41.1 l -38.62,14.2 -764.44,281.9 z m 0,-62.9 764.45,-281.8 v -109.2 h 273.44 l 0.09,-29.4 c 0.48,-154.7 126.69,-280.5 281.36,-280.5 h 29.51 v -1795.6 c 0,-417.7 -244.16,-802.7 -622.03,-980.8 l -726.82,-342.6 -726.82,342.6 c -377.87,178.1 -622.03,563.1 -622.03,980.8 v 1795.6 h 29.51 c 154.67,0 280.88,125.8 281.36,280.5 l 0.09,29.4 h 273.44 v 109.2 l 764.45,281.8 v 0" />
    </g>
    <g
       style="display:inline"
       transform="matrix(0.03689879,0,0,-0.03689879,-12.898911,696.96215)"
       id="g1147">
      <path
         id="path1149"
         style="fill:#00204f;fill-opacity:1;fill-rule:nonzero;stroke:none"
         d="m 2439.01,15469 162.64,118.1 c 38.23,27.8 87.77,34.8 132.19,18.7 l 117.94,-42.7 c 41.28,-15 73.34,-48.2 86.91,-89.9 l 51.99,-160 c 14.1,-43.4 6.55,-90.9 -20.3,-127.8 l -73.12,-100.5 c -26.8,-36.8 -69.59,-58.6 -115.12,-58.6 h -200.59 c -88.94,125.3 -141.67,277.9 -142.54,442.7 z m 531.45,738.6 156.51,-113.7 c 36.89,-26.8 58.7,-69.6 58.7,-115.2 v -129.6 c 0,-45.6 -21.81,-88.4 -58.7,-115.2 l -135.09,-98.2 c -38.24,-27.8 -87.77,-34.8 -132.21,-18.7 l -120.64,43.8 c -41.28,14.9 -73.35,48.1 -86.92,89.8 l -59.85,184.2 c 94.12,126.1 225.78,222.5 378.2,272.8 z m 326.84,-994.2 c 45.14,0 87.59,-21.4 114.44,-57.7 l 76.02,-102.7 c 27.39,-37 35.21,-84.9 20.99,-128.7 l -61.09,-188 c -74.23,-23.8 -153.26,-36.7 -235.26,-36.7 -81.26,0 -159.58,12.7 -233.22,36 l -60.92,187.5 c -14.09,43.4 -6.55,90.9 20.31,127.8 l 75.64,103.9 c 26.8,36.8 69.58,58.6 115.12,58.6 z m -58.18,765.3 c 0,45.6 21.81,88.4 58.69,115.2 l 156.52,113.7 c 153.65,-50.7 286.15,-148.3 380.42,-275.9 l -57.23,-176.1 c -13.45,-41.4 -45.12,-74.4 -85.96,-89.5 l -127.53,-47.2 c -44.65,-16.6 -94.62,-9.7 -133.15,18.3 l -133.07,96.7 c -36.88,26.8 -58.69,69.6 -58.69,115.2 z m 746.76,-505.6 c 0,-167 -53.34,-321.6 -143.62,-448.1 h -195.49 c -45.12,0 -87.58,21.4 -114.44,57.6 l -76.66,103.6 c -27.4,37 -35.22,84.9 -20.99,128.7 l 52.21,160.7 c 13.45,41.4 45.13,74.4 85.97,89.5 l 119.56,44.3 c 44.65,16.6 94.62,9.7 133.15,-18.3 l 160.27,-116.5 c 0,-0.5 0.04,-1 0.04,-1.5 z m -773.48,-826.9 c 455.96,0 826.93,370.9 826.93,826.9 0,455.9 -370.97,826.9 -826.93,826.9 -455.98,0 -826.94,-371 -826.94,-826.9 0,-456 370.96,-826.9 826.94,-826.9" />
    </g>
    <g
       style="display:inline"
       id="g1151"
       transform="matrix(0.03527778,0,0,-0.03527778,-12.898911,696.96215)">
      <g
         clip-path="url(#clipPath1157)"
         id="g1153">
        <g
           transform="scale(1.07963)"
           id="g1159">
          <path
             id="path1161"
             style="fill:#dba527;fill-opacity:1;fill-rule:nonzero;stroke:none"
             d="M 2027.09,12522 H 1785.2 v 3796.7 h 241.89 V 12522" />
        </g>
        <g
           transform="scale(1.07963)"
           id="g1163">
          <path
             id="path1165"
             style="fill:#dba527;fill-opacity:1;fill-rule:nonzero;stroke:none"
             d="m 2510.87,12522 h -241.88 v 3796.7 h 241.88 V 12522" />
        </g>
        <g
           transform="scale(1.07963)"
           id="g1167">
          <path
             id="path1169"
             style="fill:#dba527;fill-opacity:1;fill-rule:nonzero;stroke:none"
             d="m 2994.66,12522 h -241.9 v 3796.7 h 241.9 V 12522" />
        </g>
        <g
           transform="scale(1.07963)"
           id="g1171">
          <path
             id="path1173"
             style="fill:#dba527;fill-opacity:1;fill-rule:nonzero;stroke:none"
             d="m 3471.61,12522 h -241.9 v 3796.7 h 241.9 V 12522" />
        </g>
        <g
           transform="scale(1.07963)"
           id="g1175">
          <path
             id="path1177"
             style="fill:#dba527;fill-opacity:1;fill-rule:nonzero;stroke:none"
             d="M 3955.38,12560.8 H 3713.5 v 3796.8 h 241.88 v -3796.8" />
        </g>
        <g
           transform="scale(1.07963)"
           id="g1179">
          <path
             id="path1181"
             style="fill:#dba527;fill-opacity:1;fill-rule:nonzero;stroke:none"
             d="m 4439.17,12562.8 h -241.9 v 3796.7 h 241.9 v -3796.7" />
        </g>
      </g>
    </g>
    <path
       id="path1183"
       style="display:inline;fill:#00204f;fill-opacity:1;fill-rule:nonzero;stroke:none;stroke-width:0.0352777"
       d="M 53.963411,173.43992 H 28.339752 l -7.055309,-23.28686 h 32.678968 v 23.28686" />
    <path
       id="path1185"
       style="display:inline;fill:#00204f;fill-opacity:1;fill-rule:nonzero;stroke:none;stroke-width:0.0352777"
       d="m 183.32666,173.43992 h -26.02018 v -23.28686 h 33.07574 l -7.05556,23.28686" />
    <path
       id="path1187"
       style="display:inline;fill:#ffffff;fill-opacity:1;fill-rule:nonzero;stroke:none;stroke-width:0.0352777"
       d="M 175.4375,161.26556 H 35.91389 V 188.0802 H 175.4375 v -1.76389 -23.28686 z m -1.76389,1.76389 v 23.28686 H 37.677779 V 163.02945 H 173.67361 v 0" />
    <path
       id="path1189"
       style="display:inline;fill:#00204f;fill-opacity:1;fill-rule:nonzero;stroke:none;stroke-width:0.0352777"
       d="M 173.67361,186.31631 V 163.02945 H 37.677779 v 23.28686 H 173.67361" />
    <path
       id="path1191"
       style="display:inline;fill:#ffffff;fill-opacity:1;fill-rule:nonzero;stroke:none;stroke-width:0.0352777"
       d="m 44.958054,167.52384 h 10.803465 v 3.03741 h -6.414558 v 2.46945 h 5.478992 v 2.8575 h -5.478992 v 5.7785 h -4.388907 v -14.14286" />
    <path
       id="path1193"
       style="display:inline;fill:#ffffff;fill-opacity:1;fill-rule:nonzero;stroke:none;stroke-width:0.0352777"
       d="m 62.922557,174.62525 c 0,1.42523 0.265287,2.45181 0.795867,3.07623 0.530577,0.62441 1.25236,0.93486 2.165702,0.93486 0.938741,0 1.66511,-0.30692 2.179814,-0.91722 0.51435,-0.61031 0.771525,-1.70745 0.771525,-3.28789 0,-1.32998 -0.268464,-2.30364 -0.805391,-2.91748 -0.53693,-0.61383 -1.265063,-0.92075 -2.184755,-0.92075 -0.881237,0 -1.588558,0.31045 -2.121958,0.93487 -0.533752,0.62441 -0.800804,1.65452 -0.800804,3.09738 z m -4.369506,-0.0212 c 0,-2.30717 0.643114,-4.10634 1.928989,-5.39045 1.286227,-1.28763 3.077279,-1.92969 5.372804,-1.92969 2.353734,0 4.167013,0.63147 5.44054,1.89442 1.273175,1.26294 1.90994,3.03388 1.90994,5.3093 0,1.65453 -0.278342,3.0092 -0.834673,4.06753 -0.555977,1.05833 -1.359959,1.8803 -2.411236,2.46944 -1.051279,0.58914 -2.361848,0.88195 -3.93065,0.88195 -1.595262,0 -2.91465,-0.254 -3.959579,-0.762 -1.045279,-0.508 -1.8923,-1.31234 -2.541762,-2.40947 -0.649817,-1.10067 -0.974373,-2.4765 -0.974373,-4.13103" />
    <path
       id="path1195"
       style="display:inline;fill:#ffffff;fill-opacity:1;fill-rule:nonzero;stroke:none;stroke-width:0.0352777"
       d="m 80.366359,174.62525 c 0,1.42523 0.265287,2.45181 0.795512,3.07623 0.530932,0.62441 1.252363,0.93486 2.165705,0.93486 0.939093,0 1.665462,-0.30692 2.179812,-0.91722 0.514704,-0.61031 0.771879,-1.70745 0.771879,-3.28789 0,-1.32998 -0.268464,-2.30364 -0.805391,-2.91748 -0.53693,-0.61383 -1.265063,-0.92075 -2.184755,-0.92075 -0.881237,0 -1.588558,0.31045 -2.12231,0.93487 -0.533752,0.62441 -0.800452,1.65452 -0.800452,3.09738 z m -4.369506,-0.0212 c 0,-2.30717 0.64276,-4.10634 1.928989,-5.39045 1.286227,-1.28763 3.077279,-1.92969 5.372804,-1.92969 2.353382,0 4.167013,0.63147 5.440188,1.89442 1.273527,1.26294 1.909937,3.03388 1.909937,5.3093 0,1.65453 -0.278341,3.0092 -0.834318,4.06753 -0.555977,1.05833 -1.359959,1.8803 -2.41159,2.46944 -1.051277,0.58914 -2.361494,0.88195 -3.93065,0.88195 -1.594908,0 -2.91465,-0.254 -3.959577,-0.762 -1.044927,-0.508 -1.8923,-1.31234 -2.54141,-2.40947 -0.649817,-1.10067 -0.974373,-2.4765 -0.974373,-4.13103" />
    <path
       id="path1197"
       style="display:inline;fill:#ffffff;fill-opacity:1;fill-rule:nonzero;stroke:none;stroke-width:0.0352777"
       d="m 92.485334,167.52384 h 13.282436 v 3.4925 h -4.45629 v 10.65036 h -4.369859 v -10.65036 h -4.456287 v -3.4925" />
    <path
       id="path1199"
       style="display:inline;fill:#ffffff;fill-opacity:1;fill-rule:nonzero;stroke:none;stroke-width:0.0352777"
       d="m 113.1507,178.62575 h 2.22815 c 0.75247,0 1.28305,-0.13405 1.59173,-0.39863 0.30868,-0.26812 0.4632,-0.62442 0.4632,-1.07598 0,-0.41627 -0.15276,-0.75494 -0.45861,-1.00894 -0.30516,-0.254 -0.84067,-0.381 -1.60585,-0.381 h -2.21862 z m 0,-5.55625 h 1.90042 c 0.68156,0 1.1557,-0.11641 1.42275,-0.34925 0.2667,-0.23636 0.4004,-0.57502 0.4004,-1.01952 0,-0.40923 -0.1337,-0.73378 -0.4004,-0.96309 -0.26705,-0.23283 -0.73166,-0.34925 -1.39383,-0.34925 h -1.92934 z m -4.40796,-5.54566 h 8.17951 c 1.36313,0 2.41018,0.33867 3.13972,1.01247 0.7299,0.67733 1.09502,1.51342 1.09502,2.50825 0,0.83608 -0.26035,1.55222 -0.7814,2.15194 -0.34713,0.39864 -0.85513,0.71262 -1.524,0.94545 1.016,0.24342 1.76354,0.66322 2.24261,1.25942 0.47907,0.59266 0.7186,1.34055 0.7186,2.24013 0,0.73378 -0.17039,1.39348 -0.51117,1.97909 -0.34113,0.58561 -0.80715,1.04775 -1.39876,1.38994 -0.36654,0.21167 -0.91969,0.36689 -1.65911,0.46214 -0.98355,0.13053 -1.63654,0.19403 -1.95792,0.19403 h -7.5431 v -14.14286" />
    <path
       id="path1201"
       style="display:inline;fill:#ffffff;fill-opacity:1;fill-rule:nonzero;stroke:none;stroke-width:0.0352777"
       d="m 132.53619,176.27273 -1.56069,-5.08353 -1.54446,5.08353 z m 0.90664,3.05858 h -4.96076 l -0.68933,2.33539 h -4.46158 l 5.31495,-14.14286 h 4.76638 l 5.31354,14.14286 h -4.57553 l -0.70767,-2.33539" />
    <path
       id="path1203"
       style="display:inline;fill:#ffffff;fill-opacity:1;fill-rule:nonzero;stroke:none;stroke-width:0.0352777"
       d="m 141.10269,167.52384 h 4.36951 v 10.65741 h 6.81955 v 3.48545 h -11.18906 v -14.14286" />
    <path
       id="path1205"
       style="display:inline;fill:#ffffff;fill-opacity:1;fill-rule:nonzero;stroke:none;stroke-width:0.0352777"
       d="m 155.26672,167.52384 h 4.36986 v 10.65741 h 6.81955 v 3.48545 h -11.18941 v -14.14286" />
    <path
       id="path1207"
       style="display:inline;fill:#ffffff;fill-opacity:1;fill-rule:nonzero;stroke:none;stroke-width:0.0352777"
       d="M 105.76777,190.72603 H 76.004261 c -4.848929,0 -6.481233,6.477 -2.210858,8.77711 l 29.944487,16.11136 c 1.26717,0.68086 2.79223,0.68086 4.05941,0 l 29.94483,-16.11136 c 4.27002,-2.30011 2.63772,-8.77711 -2.21121,-8.77711 h -29.76315" />
    <path
       id="path1209"
       style="display:inline;fill:#00204f;fill-opacity:1;fill-rule:nonzero;stroke:none;stroke-width:0.0352777"
       d="m 91.325046,201.2247 2.003425,0.635 c -0.306562,1.1183 -0.817737,1.94733 -1.532112,2.49061 -0.714375,0.54328 -1.620308,0.81139 -2.718506,0.81139 -1.359252,0 -2.476148,-0.46214 -3.35139,-1.38995 -0.874535,-0.93133 -1.311979,-2.1978 -1.311979,-3.81 0,-1.70038 0.43956,-3.02683 1.319387,-3.96875 0.87983,-0.94191 2.035882,-1.41463 3.469217,-1.41463 1.251656,0 2.268715,0.37041 3.050471,1.11125 0.465667,0.43744 0.814562,1.06538 1.04775,1.88383 l -2.045758,0.49036 c -0.121357,-0.52917 -0.373592,-0.94897 -0.757415,-1.25589 -0.383823,-0.30692 -0.850548,-0.46214 -1.399469,-0.46214 -0.758473,0 -1.374071,0.27164 -1.846439,0.81845 -0.472369,0.54327 -0.708377,1.42522 -0.708377,2.64583 0,1.29117 0.232127,2.21544 0.697793,2.76225 0.465315,0.55033 1.070327,0.8255 1.81469,0.8255 0.549275,0 1.021996,-0.17639 1.41746,-0.52564 0.395465,-0.34925 0.67945,-0.89605 0.851252,-1.64747" />
    <path
       id="path1211"
       style="display:inline;fill:#00204f;fill-opacity:1;fill-rule:nonzero;stroke:none;stroke-width:0.0352777"
       d="m 95.872353,204.98884 v -10.14942 h 2.066573 v 8.42433 h 5.137504 v 1.72509 h -7.204077" />
    <path
       id="path1213"
       style="display:inline;fill:#00204f;fill-opacity:1;fill-rule:nonzero;stroke:none;stroke-width:0.0352777"
       d="m 105.2506,194.75475 h 2.06622 v 5.54214 c 0,0.88195 0.0257,1.44992 0.0762,1.71098 0.0889,0.4198 0.29951,0.75494 0.63217,1.00894 0.33232,0.254 0.78776,0.381 1.3649,0.381 0.58597,0 1.0287,-0.11994 1.32609,-0.35983 0.29775,-0.23989 0.47731,-0.5327 0.53799,-0.88195 0.06,-0.34925 0.0903,-0.93133 0.0903,-1.73919 v -5.66209 h 2.06657 v 5.37634 c 0,1.22766 -0.0557,2.0955 -0.16757,2.6035 -0.11183,0.508 -0.31785,0.93486 -0.61807,1.28411 -0.29986,0.34925 -0.70132,0.62794 -1.20402,0.83255 -0.50271,0.20814 -1.15853,0.31045 -1.9685,0.31045 -0.9772,0 -1.71874,-0.11289 -2.22356,-0.33867 -0.50483,-0.22578 -0.90382,-0.51858 -1.19733,-0.87841 -0.29316,-0.35984 -0.48648,-0.73731 -0.57926,-1.13242 -0.13511,-0.58914 -0.20214,-1.45345 -0.20214,-2.59645 v -5.461" />
    <path
       id="path1215"
       style="display:inline;fill:#00204f;fill-opacity:1;fill-rule:nonzero;stroke:none;stroke-width:0.0352777"
       d="m 118.37675,200.52973 v 2.73402 h 1.91312 c 0.74436,0 1.21672,-0.0212 1.41675,-0.0635 0.30727,-0.0529 0.55739,-0.1905 0.75071,-0.40569 0.19297,-0.21872 0.28963,-0.508 0.28963,-0.87136 0,-0.30692 -0.0748,-0.56797 -0.22331,-0.77964 -0.14887,-0.21519 -0.36407,-0.37042 -0.64593,-0.46919 -0.28152,-0.0988 -0.89218,-0.14464 -1.83233,-0.14464 z m 0,-4.07106 v 2.36714 h 1.35432 c 0.80504,0 1.30563,-0.0141 1.50107,-0.0353 0.35348,-0.0423 0.63146,-0.1658 0.83396,-0.36689 0.20285,-0.20108 0.30339,-0.46919 0.30339,-0.8008 0,-0.31397 -0.0871,-0.5715 -0.26141,-0.76906 -0.17463,-0.19755 -0.43392,-0.3175 -0.77858,-0.35983 -0.20461,-0.0247 -0.79339,-0.0353 -1.76565,-0.0353 z m -2.06622,-1.70392 h 4.09046 c 0.80998,0 1.41393,0.0353 1.81151,0.10231 0.39793,0.067 0.75424,0.20814 1.06857,0.41981 0.31397,0.21519 0.57573,0.50094 0.78528,0.85725 0.2092,0.3563 0.31432,0.75494 0.31432,1.19591 0,0.47978 -0.12982,0.92075 -0.3877,1.31939 -0.25823,0.40217 -0.60889,0.70203 -1.05057,0.90311 0.62336,0.17992 1.10278,0.49036 1.43827,0.92781 0.33479,0.43744 0.50236,0.94897 0.50236,1.54164 0,0.46566 -0.1083,0.91722 -0.32456,1.35819 -0.2166,0.43745 -0.51223,0.79022 -0.88688,1.05481 -0.37465,0.26105 -0.83608,0.42333 -1.38571,0.4833 -0.34396,0.0388 -1.1751,0.06 -2.49167,0.0706 h -3.48368 v -10.23413" />
    <path
       id="path1217"
       style="display:inline;fill:#00204f;fill-opacity:1;fill-rule:nonzero;stroke:none;stroke-width:0.0352777"
       d="M 94.647155,209.24686 H 117.7541 l -10.35685,5.1435 c -1.02235,0.508 -2.22709,0.49037 -3.23356,-0.0494 l -9.516535,-5.09412" />
  </g>
</svg>
