<?xml version="1.0" encoding="UTF-8"?>
<svg width="140.84mm" height="135.79mm" version="1.1" viewBox="0 0 140.84 135.79" xmlns="http://www.w3.org/2000/svg" xmlns:cc="http://creativecommons.org/ns#" xmlns:dc="http://purl.org/dc/elements/1.1/" xmlns:rdf="http://www.w3.org/1999/02/22-rdf-syntax-ns#">
 <metadata>
  <rdf:RDF>
   <cc:Work rdf:about="">
    <dc:format>image/svg+xml</dc:format>
    <dc:type rdf:resource="http://purl.org/dc/dcmitype/StillImage"/>
    <dc:title/>
   </cc:Work>
  </rdf:RDF>
 </metadata>
 <g transform="translate(-35.412 -80.27)">
  <g transform="matrix(.035846 0 0 -.035846 -247.86 696.96)">
   <path d="m10561 14743c-504.1 0-914.31 410.1-914.31 914.3 0 245.9 97.78 469.3 256.28 633.8-74.44 5.2-344.46 9-510.18-189-193.64-231.3 76.14-433.2-102.26-685.5 0 0 163.45 38.6 159.36 205-4.07 166.4-13.94 265.9 35.91 267.3 156.92 4.5 111.49-540.1-187.65-622.1-299.15-82-310.03-451.1-310.03-451.1s57.86 257.7 243.12 274.4c145.48 13.2 187.11-30 187.65-105.6 0.48-67.4-153.38-618.3-734.27-608.8-130.55 6.3-236.06 133.5-466.67 15.8 0 0 301.86-15.8 249.65-99.4-52.22-83.6-349.77 17.9-401.99 204-42.71 152.2-4.5 316.6 28.83 377.7-9.44 41.9-17.6 84.2-22.72 112.1-61.04-108.5-342.04-655.4-9.26-937.7 247.57-210 586.26-116.2 790.76-30 204.52 86.2 548.27 248.2 615.71 204 67.45-44.2-43.51-227.1-380.73-255.5-337.23-28.4-529.23-274.4-529.23-274.4s239.87 237.6 572.74 214.5c332.88-23.2 657.04 113.5 683.14 281.8 26.12 168.2 308.95 363.7 461.25 323.8 152.3-40-80.5-265-228.5-254.5 0 0 220.6-36 389.5 133.6 136.5 137 103.6 279.8 286.4 366.2-52.8-9.5-107-14.7-162.5-14.7" fill="#dba527"/>
  </g>
  <g transform="matrix(.036304 0 0 -.036304 -247.86 696.96)">
   <path d="m9641.4 15455 165.29 120.1c38.87 28.2 89.21 35.4 134.39 19l119.79-43.4c42-15.2 74.6-48.9 88.4-91.4l52.8-162.6c14.4-44.1 6.7-92.4-20.6-129.9l-74.3-102.1c-27.2-37.4-70.8-59.5-117.02-59.5h-203.86c-90.41 127.3-144 282.4-144.89 449.8zm540.17 750.8 159.1-115.6c37.4-27.2 59.6-70.8 59.6-117.1v-131.7c0-46.3-22.2-89.9-59.6-117.1l-137.3-99.8c-38.9-28.2-89.2-35.3-134.4-19l-122.64 44.5c-41.98 15.2-74.53 48.9-88.33 91.3l-60.83 187.3c95.62 128.1 229.4 226 384.4 277.2zm332.1-1010.5c45.9 0 89.1-21.8 116.4-58.6l77.2-104.4c27.9-37.6 35.9-86.3 21.4-130.8l-62.1-191.1c-75.4-24.2-155.8-37.3-239.1-37.3-82.6 0-162.2 12.8-237 36.6l-61.9 190.5c-14.4 44.1-6.7 92.4 20.6 129.9l76.8 105.6c27.3 37.4 70.8 59.6 117 59.6zm-59 777.8c0 46.3 22.1 89.9 59.6 117.1l159.1 115.6c156.2-51.6 290.8-150.8 386.6-280.4l-58.2-179c-13.7-42.1-45.8-75.6-87.3-91l-129.6-48c-45.4-16.8-96.2-9.8-135.3 18.6l-135.3 98.3c-37.5 27.2-59.6 70.8-59.6 117.1zm759-513.9c0-169.7-54.2-326.8-146.1-455.4h-198.6c-45.9 0-89 21.7-116.3 58.6l-77.9 105.2c-27.9 37.7-35.9 86.4-21.4 130.9l53 163.3c13.7 42.1 45.9 75.6 87.4 91l121.6 45c45.3 16.8 96.2 9.8 135.3-18.6l162.9-118.4c0-0.5 0.1-1 0.1-1.6zm-786.2-840.4c463.4 0 840.4 377 840.4 840.4 0 463.5-377 840.5-840.4 840.5-463.46 0-840.49-377-840.49-840.5 0-463.4 377.03-840.4 840.49-840.4" fill="#00204f"/>
  </g>
  <g transform="matrix(.037834 0 0 -.037834 -247.86 696.96)">
   <path d="m9415.3 16300c-989.51 0-1794.6-805.1-1794.6-1794.6 0-285.4 67.05-555.3 186.07-795.1 19.34 7.8 38.41 14.2 57.26 19.1-117.36 233.6-183.56 497.2-183.56 776 0 956.6 778.23 1734.8 1734.8 1734.8 956.6 0 1734.9-778.2 1734.9-1734.8s-778.3-1734.8-1734.9-1734.8c-370.61 0-714.41 116.9-996.61 315.6-23.38-7.7-45.6-16.4-66.48-25.7 297.77-219.7 665.52-349.7 1063.1-349.7 989.6 0 1794.7 805.1 1794.7 1794.6s-805.1 1794.6-1794.7 1794.6" fill="#00204f"/>
  </g>
  <g transform="matrix(.037626 0 0 -.037626 -247.86 696.96)">
   <path d="m9467.4 16300c-946.79 0-1714.3-767.5-1714.3-1714.4 0-278.4 66.45-541.3 184.25-773.8 22.81 4.2 45.4 6.4 67.87 6.4 70.24 0 126.3-20 175.76-37.6 35.07-12.5 65.4-23.3 94.74-24.9 4.04 0 8.02-0.1 12.03-0.1 96.74 0 184.51 17.8 263.1 52.5-177.97 209.6-285.39 481-285.39 777.5 0 663.9 538.16 1202 1202 1202 111.57 0 219.49-15.2 321.97-43.6 85.6 28.2 177.02 43.6 271.95 43.6 480.3 0 871.1-390.7 871.1-871 0-266.8-120.8-505.8-310.3-665.7-5.9-20.5-12.5-40.6-19.5-60.6l-6.2-17.4c-168.4-460.5-610.16-789.3-1129-789.3-39.19 0-77.91 2-116.12 5.6-38.44-44.4-94.18-84.5-165.09-117.4-118.49-55.1-266.18-85.4-415.86-85.4-25 0-50.2 0.8-74.88 2.5-13.04 0.9-26.3 1.4-39.41 1.4-55.07 0-106.99-8.1-154.79-21 275.12-188 607.78-298 966.15-298 946.92 0 1714.4 767.5 1714.4 1714.3 0 946.9-767.5 1714.4-1714.4 1714.4" fill="#00204f"/>
  </g>
  <path d="m146.25 165.86c-6.6781 14.245-21.153 24.137-37.899 24.137-0.8255 0-1.6475-0.0247-2.4624-0.0741-0.24695 0.75142-0.61736 1.4852-1.0926 2.1943 1.1737 0.0917 2.359 0.14464 3.5549 0.14464 18.584 0 34.509-11.561 40.989-27.866l-3.0903 1.464" fill="#00204f"/>
  <g transform="matrix(.036374 0 0 -.036374 -247.86 696.96)">
   <path d="m8929.4 14329c-178.11 202.6-286.28 468.1-286.28 758.4 0 634.2 515.94 1150.1 1150.1 1150.1 63.43 0 125.6-5.2 186.22-15.1 30.62 16.6 62.32 31.3 95.02 44.3-90.27 21.5-184.45 33-281.24 33-668.43 0-1212.3-543.8-1212.3-1212.3 0-301.6 110.74-577.8 293.68-790.2 18.79 9.6 37.08 20.1 54.77 31.8" fill="#00204f"/>
  </g>
  <g fill="#fff">
   <path d="m50.94 165.3-1.5342-6.2054 1.8831-0.46566 0.96449 3.9017 2.3209-0.57503-0.9017-3.6442 1.8687-0.46214 0.90135 3.6477 4.083-1.0125 0.56938 2.3072-10.155 2.5082"/>
   <path d="m53.649 148.54c2.0472 0.0706 3.5225-0.84314 3.5765-2.4236 0.05362-1.5981-1.4351-2.5647-3.4671-2.6352-1.8771-0.0635-3.5204 0.78317-3.5758 2.4095-0.05397 1.5981 1.4344 2.5823 3.4664 2.6494zm0.11606-7.5565c3.4279 0.11642 5.4363 2.2648 5.3326 5.3199-0.10513 3.1009-2.5086 4.8366-5.4868 4.7343-3.1334-0.10231-5.4074-2.1837-5.303-5.2705 0.10866-3.2103 2.5725-4.8824 5.4571-4.7837"/>
   <path d="m55.997 132.01c1.9315 0.68792 3.6139 0.26106 4.1434-1.2312 0.53481-1.5064-0.59267-2.8787-2.509-3.556-1.7702-0.63147-3.5927-0.32103-4.1381 1.2136-0.53446 1.5099 0.58738 2.8963 2.5037 3.5736zm2.3971-7.172c3.2332 1.1501 4.4976 3.8065 3.4749 6.6887-1.0382 2.9245-3.8548 3.8523-6.6636 2.854-2.9552-1.0478-4.4951-3.7183-3.4611-6.6287 1.0746-3.0304 3.9289-3.877 6.6499-2.914"/>
  </g>
  <g transform="matrix(.036003 0 0 -.036003 -247.86 696.96)">
   <path d="m8558.8 16149-44.76-63.9-45.22 31.6 128.12 183 45.21-31.7-45.52-64.9 192.88-135.1-37.83-54-192.88 135" fill="#fff"/>
  </g>
  <g transform="matrix(.036598 0 0 -.036598 -247.86 696.96)">
   <path d="m8812 16055c5.43 3.4 11.3 8.3 19.76 15.4 22.46 18.8 35.26 43.8 15.97 66.9-18.48 22.2-45.68 14.4-70.43-6.3l-16.93-14.1zm-81.25 97.4 16.28 13.6c26.05 21.7 31.09 44.2 17.5 60.4-13.85 16.6-33.9 14.8-56.36-3.9-10.76-9-16.4-14.8-20.08-19zm-119.29 43c10.86 13.4 35.6 37.4 60.35 58.1 30.28 25.2 51.3 37.8 75.14 41.7 22.1 4.6 45.66-1.1 62.24-21 16.3-19.5 20.12-47.3 2.99-77.1l0.54-0.6c30.78 14.1 65.11 10.7 88.75-17.6 16.57-19.9 20.49-43.2 16.05-65.6-5.35-26.1-26.07-55.5-69.71-91.9-24.42-20.4-44.01-34-56.45-41.6l-179.9 215.6" fill="#fff"/>
  </g>
  <g transform="matrix(.03709 0 0 -.03709 -247.86 696.96)">
   <path d="m9042.9 16147-40.31 47.6c-11.36 13.3-24.44 30.4-35.05 44l-0.75-0.4c2.95-17 7.76-38.2 10.16-55l8.94-61.5zm-46.11-72.6 10.94-74.3-60.46-26.8-35.39 292.8 76.54 33.9 194.19-222.5-62.76-27.8-49.21 57.4-73.85-32.7" fill="#fff"/>
  </g>
  <g transform="matrix(.037321 0 0 -.037321 -247.86 696.96)">
   <path d="m9227.3 16290 62.88 9.7 34.57-224.4 110.15 16.9 8.11-52.6-173.05-26.6-42.66 277" fill="#fff"/>
  </g>
  <g transform="matrix(.037371 0 0 -.037371 -247.86 696.96)">
   <path d="m9605.6 16300 63.25-5.8-20.68-225.8 110.83-10.2-4.82-52.9-174.16 15.9 25.58 278.8" fill="#fff"/>
  </g>
  <g fill="#fff">
   <path d="m103.85 197.8 2.3735 0.0811-0.29634 8.4702 4.1557 0.14464-0.0705 1.9861-6.5292-0.2293 0.36689-10.453"/>
   <path d="m122.99 202.17-3.7712 0.77964 0.50447 2.4342 4.2086-0.87489 0.39511 1.9015-6.537 1.3547-2.1202-10.245 6.3218-1.3088 0.39159 1.8979-3.997 0.82903 0.44098 2.1272 3.7712-0.77964 0.39158 1.8838"/>
   <path d="m134.62 197.51-1.5804-1.6898c-0.4445-0.47273-0.96308-1.0795-1.3794-1.5663l-0.0282 0.0141c0.14111 0.62442 0.35983 1.4041 0.47978 2.0214l0.4445 2.2613zm-1.5734 2.7728 0.54328 2.734-2.1908 1.1042-1.8521-10.781 2.7728-1.4005 7.6059 7.8846-2.2754 1.1465-1.9297-2.0355-2.6741 1.3476"/>
   <path d="m152.34 189.16c-0.37041 0.67734-1.1606 1.8591-2.1802 2.7905-1.4111 1.2876-2.7552 1.8662-4.0958 1.8274-1.3159-0.0176-2.6282-0.67027-3.6512-1.8133-2.3354-2.5788-1.8062-5.7538 0.72672-8.0645 0.99836-0.9137 1.9438-1.4182 2.4906-1.5804l0.91017 1.7321c-0.59267 0.20461-1.2559 0.53622-2.1061 1.3123-1.4534 1.33-1.7992 3.1574-0.27163 4.8331 1.4534 1.5946 3.309 1.6228 4.7413 0.31397 0.40217-0.36689 0.68086-0.70555 0.75494-0.89958l-1.4746-1.6157-1.1924 1.0866-1.2453-1.3617 2.8787-2.6282 3.7148 4.0675"/>
   <path d="m150.37 175.42 5.1541 3.115c1.5381 0.93487 2.6776 0.82198 3.302-0.21166 0.64205-1.0654 0.254-2.099-1.33-3.0551l-5.1506-3.115 1.2206-2.0179 5.02 3.0339c2.7622 1.6722 3.235 3.8594 1.8203 6.1983-1.3652 2.2578-3.4149 2.8328-6.2724 1.1042l-4.9953-3.0198 1.2312-2.032"/>
   <path d="m163.28 160.36-1.0583 3.7006 2.3883 0.68439 1.1783-4.1346 1.8662 0.5327-1.8309 6.417-10.058-2.8716 1.771-6.2089 1.8662 0.53269-1.1218 3.9264 2.092 0.59619 1.0548-3.7006 1.8521 0.52564"/>
  </g>
 </g>
</svg>
