<?xml version="1.0" encoding="UTF-8"?>
<svg width="175.96mm" height="143.03mm" version="1.1" viewBox="0 0 175.96 143.03" xmlns="http://www.w3.org/2000/svg" xmlns:cc="http://creativecommons.org/ns#" xmlns:dc="http://purl.org/dc/elements/1.1/" xmlns:rdf="http://www.w3.org/1999/02/22-rdf-syntax-ns#">
 <metadata>
  <rdf:RDF>
   <cc:Work rdf:about="">
    <dc:format>image/svg+xml</dc:format>
    <dc:type rdf:resource="http://purl.org/dc/dcmitype/StillImage"/>
    <dc:title/>
   </cc:Work>
  </rdf:RDF>
 </metadata>
 <g transform="translate(-8.0258 -16.931)">
  <path d="m75.699 84.319c-7.4962-5.969-12.311-15.166-12.311-25.471 0-17.949 14.601-32.551 32.548-32.551 17.947 0 32.548 14.601 32.548 32.551 0 10.305-4.8144 19.502-12.311 25.471h23.18v-45.833l-10.283-2.1414v-9.0452l-33.134-6.9039-33.135 6.9039v9.0452l-10.283 2.1414v45.833h23.18" fill="#00204f"/>
  <path d="m52.519 110.44v13.906l43.418 31.429 43.417-31.429v-13.906h-86.835" fill="#00204f"/>
  <path d="m62.802 115.43h-2.65e-4v8.4455l33.135 23.982 33.134-23.982v-8.4455c-19.771 14.312-46.498 14.312-66.269 0" fill="#dba527"/>
  <g fill="#00204f">
   <path d="m95.936 129.96 2.0271 4.1063 4.5325 0.65969-3.2798 3.1962 0.77435 4.5156-4.0541-2.1308-4.0541 2.1308 0.77399-4.5156-3.2798-3.1962 4.5328-0.65969 2.0271-4.1063"/>
   <path d="m109.11 125.77 1.3624 2.7622 3.0473 0.4445-2.2049 2.1484 0.52034 3.0339-2.7252-1.4323-2.7252 1.4323 0.52035-3.0339-2.2049-2.1484 3.0469-0.4445 1.3628-2.7622"/>
   <path d="m82.593 125.77 1.3628 2.7622 3.0469 0.4445-2.2049 2.1484 0.5207 3.0339-2.7256-1.4323-2.7252 1.4323 0.52035-3.0339-2.2045-2.1484 3.0469-0.4445 1.3624-2.7622"/>
  </g>
  <path d="m159.03 108.18h-126.18v-21.597h126.18v21.597" fill="#dba527"/>
  <g fill="#00204f">
   <path d="m67.399 59 6.0008-4.3603c1.4108-1.0266 3.2385-1.2841 4.8782-0.69145l4.3512 1.5769c1.5233 0.55386 2.7065 1.778 3.2071 3.3196l1.9184 5.902c0.52035 1.6016 0.24165 3.3549-0.7493 4.7166l-2.698 3.7042c-0.98884 1.3582-2.5675 2.1625-4.2478 2.1625h-7.4009c-3.2819-4.6214-5.2275-10.252-5.2596-16.33zm19.61-27.256 5.775 4.1945c1.3607 0.98778 2.1657 2.5682 2.1657 4.251v4.7837c0 1.6828-0.80504 3.2632-2.1657 4.251l-4.9851 3.6195c-1.4108 1.0266-3.2381 1.2841-4.8779 0.69144l-4.4517-1.6122c-1.5229-0.55386-2.7065-1.778-3.2071-3.3196l-2.2087-6.7945c3.4731-4.6531 8.3316-8.2091 13.956-10.065zm9.9127 8.4455c0-1.6828 0.80539-3.2632 2.1657-4.251l5.7753-4.1945c5.6698 1.8732 10.559 5.4716 14.037 10.178l-2.1114 6.4982c-0.49671 1.5275-1.6655 2.7446-3.1722 3.3055l-4.7057 1.7427c-1.6475 0.61031-3.4914 0.35631-4.9131-0.67733l-4.9103-3.5666c-1.3603-0.99131-2.1657-2.5682-2.1657-4.251zm27.555 18.658c0 6.1595-1.9682 11.864-5.2994 16.535h-7.2132c-1.6651 0-3.2318-0.79022-4.2228-2.1308l-2.8293-3.8206c-1.0107-1.3652-1.2993-3.1327-0.77435-4.7484l1.9265-5.9302c0.49671-1.5275 1.6651-2.7446 3.1722-3.302l4.4115-1.6369c1.6478-0.60678 3.4918-0.35631 4.9131 0.67733l5.9143 4.2968c0 0.02117 1e-3 0.0388 1e-3 0.05997zm-45.319 25.471h7.6073l-1.6824-5.1788c-0.52034-1.5981-0.24165-3.3549 0.7493-4.7131l2.7912-3.8347c0.98884-1.3582 2.5675-2.1625 4.2474-2.1625h6.1983c1.6651 0 3.2318 0.79022 4.2224 2.1272l2.8053 3.7888c1.0107 1.3652 1.2989 3.1362 0.774 4.7484l-1.6969 5.2246h7.5399c8.2684-5.4645 13.735-14.841 13.735-25.471 0-16.827-13.688-30.515-30.513-30.515-16.825 0-30.512 13.688-30.512 30.515 0 10.629 5.4663 20.006 13.735 25.471"/>
   <path d="m51.388 84.319v-46.754l10.283-2.1414v-9.0452l34.265-7.1367 34.265 7.1367v9.0452l10.283 2.1414v46.754h2.2613v-48.592l-10.283-2.1414v-9.0452l-36.526-7.6094-36.527 7.6094v9.0452l-10.283 2.1414v48.592h2.2613"/>
   <path d="m140.48 110.44v14.485l-44.548 32.247-44.548-32.247v-14.485h-2.2613v15.639l46.81 33.884 46.809-33.884v-15.639h-2.2613"/>
   <path d="m159.03 84.245h-14.192v-7.179z"/>
   <path d="m33.127 110.51h14.192v7.179z"/>
  </g>
  <path d="m183.99 75.133-39.15-0.19756 15.999 8.5937v17.357h23.065l-11.928-13.286 12.013-12.467" fill="#dba527"/>
  <path d="m8.0258 119.6 39.149 0.19755-15.999-8.5937v-17.357h-23.065l11.929 13.286-12.013 12.467" fill="#dba527"/>
  <g fill="#fff">
   <path d="m39.06 90.916h10.164v2.861h-6.035v2.3213h5.1548v2.6882h-5.1548v5.4328h-4.1293v-13.303"/>
   <path d="m55.962 97.597c0 1.3406 0.24977 2.3072 0.74895 2.8928 0.49918 0.58914 1.1783 0.88195 2.0373 0.88195 0.88335 0 1.567-0.28928 2.051-0.86431 0.48401-0.57503 0.72601-1.6051 0.72601-3.0939 0-1.2524-0.25294-2.1661-0.75776-2.7446-0.50518-0.57856-1.1903-0.86783-2.0556-0.86783-0.82903 0-1.4944 0.2928-1.9967 0.88194-0.502 0.58561-0.75318 1.5558-0.75318 2.9139zm-4.1113-0.02117c0-2.1696 0.60502-3.8629 1.815-5.0729 1.2104-1.21 2.8952-1.8133 5.0553-1.8133 2.2144 0 3.9204 0.59267 5.1185 1.7815 1.198 1.1889 1.797 2.854 1.797 4.9989 0 1.5522-0.26176 2.8293-0.78528 3.8241-0.52317 0.99484-1.2795 1.7674-2.2687 2.3213-0.98919 0.55386-2.2221 0.83256-3.6982 0.83256-1.5007 0-2.7425-0.23989-3.7253-0.71614-0.98319-0.47978-1.7805-1.2347-2.3915-2.2719-0.61136-1.0336-0.91687-2.3283-0.91687-3.8841"/>
   <path d="m72.375 97.597c0 1.3406 0.24941 2.3072 0.7486 2.8928 0.49918 0.58914 1.1783 0.88195 2.0376 0.88195 0.88336 0 1.5667-0.28928 2.0507-0.86431 0.48436-0.57503 0.72602-1.6051 0.72602-3.0939 0-1.2524-0.25259-2.1661-0.75777-2.7446-0.50518-0.57856-1.1903-0.86783-2.0553-0.86783-0.82938 0-1.4947 0.2928-1.9967 0.88194-0.50236 0.58561-0.75318 1.5558-0.75318 2.9139zm-4.1113-0.02117c0-2.1696 0.60501-3.8629 1.815-5.0729 1.21-1.21 2.8952-1.8133 5.055-1.8133 2.2144 0 3.9208 0.59267 5.1188 1.7815 1.1977 1.1889 1.7967 2.854 1.7967 4.9989 0 1.5522-0.26176 2.8293-0.78493 3.8241-0.52352 0.99484-1.2795 1.7674-2.2691 2.3213-0.98884 0.55386-2.2218 0.83256-3.6982 0.83256-1.5007 0-2.7421-0.23989-3.7253-0.71614-0.98319-0.47978-1.7805-1.2347-2.3915-2.2719-0.61101-1.0336-0.91652-2.3283-0.91652-3.8841"/>
   <path d="m83.777 90.916h12.497v3.2844h-4.1928v10.019h-4.1113v-10.019h-4.1928v-3.2844"/>
   <path d="m103.22 101.36h2.0966c0.70767 0 1.2068-0.12347 1.4972-0.37747 0.29033-0.25047 0.43603-0.58561 0.43603-1.0089 0-0.39511-0.14393-0.70908-0.43145-0.94897-0.28751-0.23989-0.79092-0.35983-1.5109-0.35983h-2.0874zm0-5.2282h1.7879c0.641 0 1.0876-0.10936 1.3384-0.33161 0.25118-0.21872 0.37676-0.53975 0.37676-0.95603 0-0.38805-0.12558-0.68792-0.37676-0.90664-0.25083-0.21872-0.68827-0.32808-1.3113-0.32808h-1.815zm-4.1476-5.2176h7.6962c1.2827 0 2.2673 0.3175 2.9538 0.9525 0.68686 0.635 1.0301 1.4217 1.0301 2.3601 0 0.78669-0.24483 1.4605-0.73484 2.0249-0.32702 0.37395-0.80503 0.67028-1.434 0.889 0.95603 0.22931 1.6591 0.62442 2.11 1.1853 0.45085 0.55739 0.67627 1.2629 0.67627 2.1096 0 0.68791-0.16051 1.3088-0.48119 1.8591-0.32067 0.55034-0.75918 0.98778-1.3159 1.3088-0.34502 0.19756-0.86536 0.34219-1.561 0.43392-0.92569 0.11994-1.5399 0.17991-1.8422 0.17991h-7.0972v-13.303"/>
   <path d="m121.46 99.146-1.4686-4.7801-1.4531 4.7801zm0.85302 2.8787h-4.6676l-0.64841 2.1943h-4.1977l5.0006-13.303h4.4845l4.9992 13.303h-4.305l-0.66569-2.1943"/>
   <path d="m129.52 90.916h4.1113v10.029h6.416v3.2738h-10.527v-13.303"/>
   <path d="m142.85 90.916h4.1113v10.029h6.416v3.2738h-10.527v-13.303"/>
  </g>
 </g>
</svg>
