<?xml version="1.0" encoding="UTF-8"?>
<svg width="177.87mm" height="140.67mm" version="1.1" viewBox="0 0 177.87 140.67" xmlns="http://www.w3.org/2000/svg" xmlns:cc="http://creativecommons.org/ns#" xmlns:dc="http://purl.org/dc/elements/1.1/" xmlns:rdf="http://www.w3.org/1999/02/22-rdf-syntax-ns#">
 <metadata>
  <rdf:RDF>
   <cc:Work rdf:about="">
    <dc:format>image/svg+xml</dc:format>
    <dc:type rdf:resource="http://purl.org/dc/dcmitype/StillImage"/>
    <dc:title/>
   </cc:Work>
  </rdf:RDF>
 </metadata>
 <g transform="translate(-16.898 -77.83)">
  <g transform="matrix(.03789 0 0 -.03789 -478.28 696.96)">
   <path d="m14962 13111c210-56.6 359.2-129.8 452.4-185.4 94.5 58.2 246.4 133.7 460.5 186.3 131.7 32.5 293.7 151 424.8 302.3h-1762.3c141.2-161.6 307.7-271.7 424.6-303.2" fill="#00204f"/>
  </g>
  <g fill="#dba527">
   <path d="m81.185 154.87c-0.41628-1.9191-0.9525-6.6322 3.2738-8.3749 0 0 2.226 7.2214-2.9281 9.1581-4.9001 2.5082-8.7418-4.004-8.7418-4.004 4.1346-1.9509 7.2566 1.6192 8.3961 3.2209"/>
   <path d="m77.9 149.52c-0.07408-1.8874 0.20108-6.4452 4.4979-7.3907 0 0 0.90664 7.2143-4.3004 8.188-5.0624 1.5628-7.6165-5.2493-7.6165-5.2493 4.2439-1.1571 6.6075 2.7446 7.4189 4.4521"/>
   <path d="m76.278 143.83c0.05292-1.7956 0.61736-6.0925 4.7484-6.7028 0 0 0.381 6.8933-4.6143 7.4718-4.8966 1.1395-6.8686-5.4786-6.8686-5.4786 4.0958-0.81491 6.0784 3.0374 6.7345 4.7096"/>
   <path d="m75.586 137.63c0.36689-1.4887 1.6122-4.9812 5.1752-4.7484 0 0-0.92428 5.8314-5.2035 5.4151-4.3004 0.0741-4.7554-5.8138-4.7554-5.8138 3.5736 0.0529 4.5332 3.6336 4.7837 5.147"/>
   <path d="m75.854 132.56c0.49389-1.2806 1.9932-4.2369 5.1329-3.6301 0 0-1.4817 5.0729-5.2352 4.2192-3.8241-0.4198-3.5631-5.6974-3.5631-5.6974 3.1644 0.45156 3.616 3.7359 3.6654 5.1082"/>
   <path d="m76.817 128.13c0.55739-0.97719 2.1343-3.1891 4.6002-2.3107 0 0-1.8203 3.9264-4.7554 2.7764-3.0445-0.81139-2.1837-5.0518-2.1837-5.0518 2.5047 0.75142 2.4659 3.4678 2.3389 4.5861"/>
  </g>
  <g transform="matrix(.035403 0 0 -.035403 -478.28 696.96)">
   <path d="m15714 16172c17.7 24.1 66.2 77.5 128.5 46.7 0 0-60.2-98-134-58.5-77.8 30.8-42.1 140.1-42.1 140.1 63.9-27.7 54.4-99.2 47.6-128.3" fill="#dba527"/>
  </g>
  <g transform="matrix(.035596 0 0 -.035596 -478.28 696.96)">
   <path d="m15674 16176c19 20.6 69.4 65.4 124.3 30.5 0 0-65.8-85.1-130.5-40.9-69.4 36.5-25 134.5-25 134.5 56.6-32.2 40.6-97.7 31.2-124.1" fill="#dba527"/>
  </g>
  <g transform="matrix(.035713 0 0 -.035713 -478.28 696.96)">
   <path d="m15672 16201c16.9 13.7 60.8 42.6 99.1 9.5 0 0-60.3-58.1-105.1-16.8-49.3 35.9-4.1 106.4-4.1 106.4 40-31.1 20.2-79.8 10.1-99.1" fill="#dba527"/>
  </g>
  <g transform="matrix(.03586 0 0 -.03586 -478.28 696.96)">
   <path d="m15638 16176s77.5-13.2 129.3 112c0 0-101.2 12.4-129.3-112" fill="#dba527"/>
  </g>
  <g transform="matrix(.037868 0 0 -.037868 -478.28 696.96)">
   <path d="m16078 14316c11 50.7 25.1 175.1-86.5 221.2 0 0-58.8-190.8 77.3-241.9 129.4-66.2 230.9 105.8 230.9 105.8-109.2 51.5-191.7-42.8-221.7-85.1" fill="#dba527"/>
  </g>
  <g transform="matrix(.038009 0 0 -.038009 -478.28 696.96)">
   <path d="m16105 14403c2 49.7-5.4 169.5-118.3 194.4 0 0-23.9-189.8 113.1-215.4 133.1-41.1 200.4 138.1 200.4 138.1-111.7 30.5-173.8-72.2-195.2-117.1" fill="#dba527"/>
  </g>
  <g transform="matrix(.038066 0 0 -.038066 -478.28 696.96)">
   <path d="m16123 14531c-1.5 47.1-16.3 160-124.9 176.1 0 0-9.9-181.1 121.4-196.3 128.6-30 180.3 143.9 180.3 143.9-107.6 21.4-159.6-79.8-176.8-123.7" fill="#dba527"/>
  </g>
  <g transform="matrix(.037989 0 0 -.037989 -478.28 696.96)">
   <path d="m16174 14724c-9.7 39.2-42.5 131-136.3 125 0 0 24.3-153.5 137-142.6 113.1-1.9 125.1 153 125.1 153-94-1.4-119.3-95.6-125.8-135.4" fill="#dba527"/>
  </g>
  <g transform="matrix(.03792 0 0 -.03792 -478.28 696.96)">
   <path d="m16196 14884c-13.1 33.9-52.6 111.9-135.4 95.8 0 0 39-133.8 138-111.3 100.9 11.1 93.9 150.3 93.9 150.3-83.4-11.9-95.2-98.5-96.5-134.8" fill="#dba527"/>
  </g>
  <g transform="matrix(.037817 0 0 -.037817 -478.28 696.96)">
   <path d="m16215 15042c-14.7 25.9-56.5 84.3-121.8 61.1 0 0 48.3-103.8 125.8-73.4 80.6 21.5 57.8 133.6 57.8 133.6-66.3-19.9-65.3-91.7-61.8-121.3" fill="#dba527"/>
  </g>
  <g transform="matrix(.037727 0 0 -.037727 -478.28 696.96)">
   <path d="m16222 15176c-16.7 22.5-62.2 72.7-120.7 43.8 0 0 56.5-92 125.9-54.9 73 28.9 39.3 131.4 39.3 131.4-59.8-25.9-50.9-93-44.5-120.3" fill="#dba527"/>
  </g>
  <g transform="matrix(.037612 0 0 -.037612 -478.28 696.96)">
   <path d="m16228 15309c-17.9 19.5-65.6 62-117.6 28.9 0 0 62.4-80.5 123.6-38.7 65.6 34.5 23.7 127.3 23.7 127.3-53.6-30.4-38.5-92.5-29.7-117.5" fill="#dba527"/>
  </g>
  <g transform="matrix(.03746 0 0 -.03746 -478.28 696.96)">
   <path d="m16247 15445c-16.1 13.1-58.1 40.6-94.6 9.1 0 0 57.5-55.4 100.3-16.1 46.9 34.3 3.9 101.5 3.9 101.5-38.1-29.7-19.3-76.1-9.6-94.5" fill="#dba527"/>
  </g>
  <g transform="matrix(.037273 0 0 -.037273 -478.28 696.96)">
   <path d="m16300 15562s-74.5-12.6-124.3 107.9c0 0 97.4 11.8 124.3-107.9" fill="#dba527"/>
  </g>
  <g transform="matrix(.037224 0 0 -.037224 -478.28 696.96)">
   <path d="m15125 15132 119.4 86.7c28.1 20.4 64.5 25.5 97.1 13.7l86.5-31.3c30.3-11 53.9-35.4 63.9-66l38.1-117.5c10.4-31.8 4.8-66.7-14.9-93.8l-53.7-73.7c-19.7-27.1-51-43.1-84.5-43.1h-147.3c-65.3 92-103.9 204-104.6 325zm390.2 542.2 114.8-83.5c27.1-19.6 43.2-51.1 43.2-84.5v-95.2c0-33.4-16.1-64.9-43.2-84.5l-99.1-72.1c-28.1-20.4-64.4-25.5-97-13.7l-88.6 32.1c-30.4 11-53.9 35.3-63.8 66l-44 135.2c69.1 92.5 165.8 163.3 277.7 200.2zm239.9-729.8c33.1 0 64.3-15.8 84-42.4l55.8-75.4c20.1-27.1 25.9-62.3 15.4-94.5l-44.8-138c-54.5-17.4-112.5-26.9-172.7-26.9-59.7 0-117.2 9.3-171.3 26.4l-44.7 137.6c-10.3 31.9-4.7 66.8 15 93.8l55.5 76.3c19.6 27.1 51.1 43.1 84.5 43.1zm-42.7 561.8c0 33.4 16 64.9 43 84.5l115 83.5c112.8-37.2 210-108.8 279.3-202.5l-42.1-129.3c-9.9-30.4-33.1-54.6-63-65.7l-93.7-34.7c-32.7-12.1-69.4-7.1-97.8 13.5l-97.7 71c-27 19.6-43 51.1-43 84.5zm548.2-371.2c0-122.6-39.2-236.1-105.4-329h-143.5c-33.2 0-64.4 15.7-84.1 42.4l-56.3 76c-20.1 27.2-25.8 62.4-15.3 94.5l38.3 118c9.8 30.4 33.1 54.6 63.1 65.7l87.7 32.5c32.8 12.1 69.5 7.1 97.8-13.5l117.7-85.5v-1.1zm-567.8-607.1c334.7 0 607 272.4 607 607.1s-272.3 607.1-607 607.1c-334.8 0-607.1-272.4-607.1-607.1s272.3-607.1 607.1-607.1" fill="#00204f"/>
  </g>
  <g transform="matrix(.037984 0 0 -.037984 -478.28 696.96)">
   <path d="m15378 16300 59.7-120.8 133.2-19.3-96.5-94 22.8-132.8-119.2 62.7-119.1-62.7 22.7 132.8-96.5 94 133.3 19.3 59.6 120.8" fill="#dba527"/>
  </g>
  <g transform="matrix(.037584 0 0 -.037584 -478.28 696.96)">
   <path d="m15215 16300 37.4-75.8 83.7-12.2-60.6-59 14.3-83.4-74.8 39.4-74.9-39.4 14.3 83.4-60.6 59 83.7 12.2 37.5 75.8" fill="#dba527"/>
  </g>
  <g transform="matrix(.03732 0 0 -.03732 -478.28 696.96)">
   <path d="m15062 16300 27.6-55.8 61.6-9-44.5-43.4 10.4-61.4-55.1 29-55.1-29 10.6 61.4-44.6 43.4 61.6 9 27.5 55.8" fill="#dba527"/>
  </g>
  <g transform="matrix(.037584 0 0 -.037584 -478.28 696.96)">
   <path d="m15871 16300-37.5-75.8-83.7-12.2 60.6-59-14.3-83.4 74.9 39.4 74.8-39.4-14.3 83.4 60.6 59-83.7 12.2-37.4 75.8" fill="#dba527"/>
  </g>
  <g transform="matrix(.037395 0 0 -.037395 -478.28 696.96)">
   <path d="m16211 16268-27.5-55.7-61.5-8.9 44.5-43.4-10.5-61.2 55 28.9 54.9-28.9-10.4 61.2 44.5 43.4-61.5 8.9-27.5 55.7" fill="#dba527"/>
  </g>
  <g transform="matrix(.039915 0 0 -.039915 -478.28 696.96)">
   <path d="m16300 12797h-3332v631.7h3332v-631.7" fill="#dba527"/>
  </g>
  <g transform="matrix(.038596 0 0 -.038596 -478.28 696.96)">
   <path d="m16157 13176c-152.9-206.3-367.3-373.6-544.8-417.3-255.3-62.8-411.2-159.8-478.8-209.3-67.4 47.4-222.3 140.7-475.7 209-156 42-376.4 194.2-542.6 417.6h-142.8c169.2-257 429.3-470 654.8-530.8 317.4-85.5 467.2-212.9 468.6-214.1l39.5-34.4 38.7 35.4c1.6 1.3 151 135.2 466.2 212.8 225.4 55.4 489.2 269.7 659.6 531.1h-142.7" fill="#00204f"/>
  </g>
  <g transform="matrix(.039031 0 0 -.039031 -478.28 696.96)">
   <path d="m13788 14166c-47.6-95.5-101.4-203.7-136-330-4-15-7.6-29.9-10.7-44.8h118.9c0 0.1 0 0.1 0.1 0.2h595.2l-338.4 65.6c-116.3 22.5-179.1 149.5-126.5 255.4 0.4 0.7 0.8 1.4 1.1 2.1 127.1 255.6 247.4 497.5-107.8 898.2l261.3 331c572.3-313.4 1268.8-313.4 1841.1 0l261.2-331c-355.1-399.4-241.6-628-110.8-891.3 1.5-3.1 3.1-6.1 4.6-9.2 52.5-105.9-10.3-232.9-126.4-255.4l-337.8-65.5h594.2v-0.1h119c-3.2 15-6.8 30-11 45-36.3 130.3-90.8 240-138.8 336.7-129.7 261.2-215.4 433.7 125.3 797.5l34 36.4-384.5 487.1-43.5-25.3c-558.9-325.5-1253.3-325.5-1812.2 0l-43.4 25.3-384.6-487.1 34.1-36.4c341.1-364.2 249.2-548.8 122.3-804.4" fill="#00204f"/>
  </g>
  <g transform="matrix(.041291 0 0 -.041291 -478.28 696.96)">
   <path d="m16300 13239-855.9 4.8 349.8-208.1v-420.3h504.2l-260.7 321.7 262.6 301.9" fill="#dba527"/>
  </g>
  <path d="m16.898 150.09 35.341-0.20108-14.443 8.5937v17.357h-20.821l10.767-13.286-10.844-12.464" fill="#dba527"/>
  <g fill="#00204f">
   <path d="m42.616 166.24h11.261v3.168h-6.6887v2.5718h5.7115v2.9774h-5.7115v6.0219h-4.572v-14.739"/>
   <path d="m61.341 173.65c0 1.4887 0.27517 2.5576 0.82903 3.2068 0.55386 0.64911 1.3053 0.97367 2.2578 0.97367 0.97719 0 1.7357-0.3175 2.2719-0.9525 0.53622-0.63853 0.80433-1.7815 0.80433-3.429 0-1.39-0.28222-2.4024-0.83961-3.041-0.56092-0.64205-1.3194-0.96308-2.2789-0.96308-0.91722 0-1.6545 0.32808-2.2119 0.9772-0.55386 0.64911-0.83256 1.7251-0.83256 3.2279zm-4.5544-0.0212c0-2.4059 0.67028-4.2792 2.0108-5.6198 1.3406-1.3406 3.2068-2.0108 5.5986-2.0108 2.4553 0 4.3427 0.65969 5.6727 1.9756 1.3264 1.3159 1.9897 3.1609 1.9897 5.5351 0 1.7216-0.28928 3.1362-0.87136 4.2369-0.57856 1.1042-1.4146 1.9614-2.5118 2.5753-1.0971 0.61383-2.4624 0.92075-4.0993 0.92075-1.6616 0-3.0374-0.26811-4.1275-0.79728-1.0866-0.52917-1.972-1.3652-2.6494-2.5118-0.67733-1.1465-1.0125-2.5823-1.0125-4.3039"/>
   <path d="m79.523 173.65c0 1.4887 0.27517 2.5576 0.82903 3.2068s1.3053 0.97367 2.2578 0.97367c0.9772 0 1.7357-0.3175 2.2719-0.9525 0.53622-0.63853 0.80433-1.7815 0.80433-3.429 0-1.39-0.27869-2.4024-0.83961-3.041-0.56092-0.64205-1.3194-0.96308-2.2789-0.96308-0.91722 0-1.6545 0.32808-2.2119 0.9772-0.55386 0.64911-0.83255 1.7251-0.83255 3.2279zm-4.5544-0.0212c0-2.4059 0.67028-4.2792 2.0108-5.6198 1.3406-1.3406 3.2068-2.0108 5.5986-2.0108 2.4553 0 4.3427 0.65969 5.6727 1.9756 1.3264 1.3159 1.9897 3.1609 1.9897 5.5351 0 1.7216-0.28928 3.1362-0.87136 4.2369-0.57856 1.1042-1.4146 1.9614-2.5118 2.5753-1.0971 0.61383-2.4624 0.92075-4.0958 0.92075-1.6651 0-3.0409-0.26811-4.1275-0.79728-1.0901-0.52917-1.9756-1.3652-2.6494-2.5118-0.67733-1.1465-1.016-2.5823-1.016-4.3039"/>
  </g>
  <g transform="matrix(.035845 0 0 -.035845 -478.28 696.96)">
   <path d="m15914 14806h386.2v-101.5h-129.6v-309.7h-127.1v309.7h-129.5v101.5" fill="#00204f"/>
  </g>
  <g transform="matrix(.036871 0 0 -.036871 -478.28 696.96)">
   <path d="m16055 14080h62.9c21.3 0 36.3 3.8 45 11.3 8.8 7.6 13.1 17.7 13.1 30.4 0 11.9-4.3 21.4-12.9 28.6-8.6 7.1-23.8 10.7-45.5 10.7h-62.6zm0 157.1h53.6c19.4 0 32.8 3.3 40.3 10 7.5 6.6 11.3 16.2 11.3 28.7 0 11.7-3.8 20.7-11.3 27.3-7.5 6.5-20.7 9.8-39.4 9.8h-54.5zm-124.7 156.8h231.2c38.6 0 68.2-9.6 88.8-28.6 20.7-19.1 30.9-42.8 30.9-70.9 0-23.7-7.3-43.9-22.1-60.8-9.7-11.3-24.1-20.2-43-26.8 28.7-6.9 49.8-18.7 63.4-35.6 13.5-16.8 20.3-37.9 20.3-63.4 0-20.7-4.8-39.3-14.4-55.9-9.7-16.5-22.8-29.6-39.6-39.2-10.4-6-26-10.4-46.8-13.1-27.9-3.7-46.4-5.5-55.4-5.5h-213.3v399.8" fill="#00204f"/>
  </g>
  <g transform="matrix(.037953 0 0 -.037953 -478.28 696.96)">
   <path d="m16130 13743-43 139.6-42.3-139.6zm24.8-84h-136.2l-18.9-64.1h-122.5l145.9 388.3h130.9l145.9-388.3h-125.7l-19.4 64.1" fill="#00204f"/>
  </g>
  <g transform="matrix(.03882 0 0 -.03882 -478.28 696.96)">
   <path d="m16000 13671h117.3v-286.2h183.1v-93.5h-300.4v379.7" fill="#00204f"/>
  </g>
  <g transform="matrix(.039726 0 0 -.039726 -478.28 696.96)">
   <path d="m16006 13359h114.7v-279.7h178.9v-91.3h-293.6v371" fill="#00204f"/>
  </g>
  <g transform="matrix(.035321 0 0 -.035321 -478.28 696.96)">
   <path d="m16134 14280h165.8v-43.6h-55.5v-133h-54.7v133h-55.6v43.6" fill="#fff"/>
  </g>
  <g transform="matrix(.035724 0 0 -.035724 -478.28 696.96)">
   <path d="m16153 14119h144.5v-37.3h-90.5v-27.7h83.9v-35.6h-83.9v-34.5h93.1v-39.5h-147.1v174.6" fill="#fff"/>
  </g>
  <g transform="matrix(.036192 0 0 -.036192 -478.28 696.96)">
   <path d="m16225 13830-19.1 61.9-18.8-61.9zm11-37.3h-60.5l-8.3-28.4h-54.3l64.7 172.3h58.1l64.7-172.3h-55.8l-8.6 28.4" fill="#fff"/>
  </g>
  <g transform="matrix(.036685 0 0 -.036685 -478.28 696.96)">
   <path d="m16109 13749h69.1l26.6-103.4 26.5 103.4h69v-170h-43v129.7l-33.2-129.7h-38.9l-33.1 129.7v-129.7h-43v170" fill="#fff"/>
  </g>
  <g transform="matrix(.03983 0 0 -.03983 -478.28 696.96)">
   <path d="m16300 13514-289.4 162.2v-162.2h289.4" fill="#00204f"/>
  </g>
  <path d="m52.239 158.69v-6.6746l-11.903 6.6746z" fill="#00204f"/>
 </g>
</svg>
