<?xml version="1.0" encoding="UTF-8"?>
<svg width="149.55mm" height="167.68mm" version="1.1" viewBox="0 0 149.55 167.68" xmlns="http://www.w3.org/2000/svg" xmlns:cc="http://creativecommons.org/ns#" xmlns:dc="http://purl.org/dc/elements/1.1/" xmlns:rdf="http://www.w3.org/1999/02/22-rdf-syntax-ns#">
 <metadata>
  <rdf:RDF>
   <cc:Work rdf:about="">
    <dc:format>image/svg+xml</dc:format>
    <dc:type rdf:resource="http://purl.org/dc/dcmitype/StillImage"/>
    <dc:title/>
   </cc:Work>
  </rdf:RDF>
 </metadata>
 <g transform="translate(172.29 187.41)">
  <g transform="matrix(.036388 0 0 -.036388 -681.63 68.604)">
   <path d="m16051 7035.7 76.9-155.8 171.9-24.92-124.4-121.28 29.4-171.12-153.8 80.76-153.7-80.76 29.3 171.12-124.3 121.28 171.8 24.92 76.9 155.8" fill="#00204f"/>
  </g>
  <path d="m-112.75-179.35 1.7392 3.5242 3.8841 0.56444-2.8116 2.7411 0.66323 3.87-3.4749-1.8274-3.4749 1.8274 0.66323-3.87-2.8116-2.7411 3.8841-0.56444 1.7392-3.5242" fill="#00204f"/>
  <path d="m-124.76-174.05 1.27 2.5753 2.8399 0.41275-2.0567 2.0038 0.48684 2.8258-2.54-1.3335-2.54 1.3335 0.4833-2.8258-2.0567-2.0038 2.8434-0.41275 1.27-2.5753" fill="#00204f"/>
  <g transform="matrix(.037115 0 0 -.037115 -681.63 68.604)">
   <path d="m16148 6680.8-46.8-94.96-104.7-15.21 75.7-73.85-17.8-104.27 93.6 49.24 93.7-49.24-17.9 104.27 75.8 73.85-104.7 15.21-46.9 94.96" fill="#00204f"/>
  </g>
  <g transform="matrix(.037759 0 0 -.037759 -681.63 68.604)">
   <path d="m16191 6426.4-33.7-68.21-75.2-10.93 54.4-53.07-12.8-74.84 67.3 35.32 67.2-35.32-12.8 74.84 54.4 53.07-75.2 10.93-33.6 68.21" fill="#00204f"/>
  </g>
  <g transform="matrix(.040422 0 0 -.040422 -681.63 68.604)">
   <path d="m15375 5389.2h-150.8c-2.9-16.93-6.3-35.6-10.4-55.94h128.8l892.6-1546.1-460.8-798.11c-267.1-462.89-761-747.92-1295.4-747.92h-58c-534.5 0-1028.3 285.03-1295.4 747.83l-460.9 798.2 892.6 1546.1h128.9c-4.1 20.34-7.5 39.01-10.4 55.94h-150.7l-925-1602.1 493.1-854.14c267.3-462.8 761-747.84 1295.5-747.84h122.6c534.4 0 1028.3 285.04 1295.4 747.93l493.1 854.05-924.8 1602.1" fill="#00204f"/>
  </g>
  <g transform="matrix(.03764 0 0 -.03764 -681.63 68.604)">
   <path d="m15843 5170.2c69.6 202.92 89 468.25 93.4 644.83h231.6c-25.2-142.74-113.1-539.48-325-644.83zm-973.5 644.83h231.7c4.4-176.58 23.6-441.91 93.3-644.83-212 105.35-299.8 502.09-325 644.83zm1404.2 90.17c-18.5 21.65-45.4 34.02-73.8 34.02h-262.6c-0.1 12-0.3 22.68-0.5 31.68-0.3 19.12-16 34.39-35.2 34.39h-42.7c-0.5 20.72-17.3 37.31-38.1 37.31h-34.8c0 0.37 0.1 0.65 0.1 1.03 0 21.18-17.1 38.33-38.2 38.33h-135.1c0.3 1.78 0.6 3.66 0.6 5.63 0 20.33-16.4 36.73-36.8 36.73h-4.3c32 18.56 53.5 52.96 53.5 92.61 0 59.04-47.9 107.03-107.1 107.03-59 0-107-47.99-107-107.03 0-39.65 21.5-74.05 53.5-92.61h-4.4c-20.2 0-36.6-16.4-36.6-36.73 0-1.97 0.2-3.85 0.5-5.63h-135c-21.1 0-38.3-17.15-38.3-38.33 0-0.38 0.1-0.66 0.1-1.03h-34.8c-20.8 0-37.6-16.59-38.1-37.31h-42.7c-19.2 0-34.8-15.27-35.3-34.39-0.2-9-0.3-19.68-0.5-31.68h-262.5c-28.4 0-55.3-12.37-73.7-34.02-18.5-21.47-26.6-49.87-22.3-77.89 28.5-182.76 148.6-764.7 521.3-804.91 3.8-6 7.5-12 11.5-17.62 25.3-36.55 50.2-73.67 72.3-112.94 48.3-85.38 89.7-161.11 99.2-246.96-15.7-17.44-25.4-40.4-25.4-65.8 0-20.24 6.2-39.08 16.7-54.83h-50.8c-25.6 0-46.3-20.15-47.4-45.45h-135c-26.3 0-47.5-21.28-47.5-47.62 0-26.24 21.2-47.52 47.5-47.52h629.5c26.3 0 47.6 21.28 47.6 47.52 0 26.34-21.3 47.62-47.6 47.62h-135c-1.1 25.3-21.8 45.45-47.3 45.45h-50.9c10.6 15.75 16.7 34.59 16.7 54.83 0 25.4-9.6 48.36-25.4 65.8 9.5 85.85 50.9 161.58 99.1 246.96 22.2 39.27 47.1 76.39 72.5 112.94 3.9 5.62 7.6 11.62 11.4 17.62 372.7 40.21 492.8 622.15 521.3 804.91 4.3 27.93-3.8 56.42-22.2 77.89" fill="#dba527"/>
  </g>
  <g transform="matrix(.03908 0 0 -.03908 -681.63 68.604)">
   <path d="m13594 3120.6h0.1c276.3-478.71 787-773.62 1339.9-773.62h26.6c552.7 0 1063.5 294.91 1339.9 773.62-422.7 152.74-878.4 236.24-1353.3 236.24-474.8 0-930.4-83.5-1353.2-236.24" fill="#00204f"/>
  </g>
  <g transform="matrix(.039879 0 0 -.039879 -681.63 68.604)">
   <path d="m13292 3108.8c423 153.57 879.4 237.42 1355.4 237.42 476.1 0 932.5-83.85 1355.4-237.42l297.7 515.55c-512.5 199.56-1069.9 309.17-1653.1 309.17-583 0-1140.5-109.61-1653-309.17l297.6-515.55" fill="#dba527"/>
  </g>
  <g transform="matrix(.036846 0 0 -.036846 -681.63 68.604)">
   <path d="m15434 3010.3 88 63.86c20.7 15.03 47.5 18.86 71.4 10.15l63.9-23.18c22.3-8.04 39.6-25.94 47-48.54l28.1-86.55c7.6-23.46 3.6-49.21-11-69.12l-39.5-54.39c-14.6-19.91-37.7-31.69-62.4-31.69h-108.4c-48.1 67.79-76.6 150.32-77.1 239.46zm287.4 399.53 84.7-61.47c20-14.55 31.7-37.72 31.7-62.32v-70.18c0-24.61-11.7-47.78-31.7-62.24l-73.1-53.14c-20.7-15.03-47.5-18.76-71.5-10.15l-65.2 23.66c-22.3 8.13-39.8 26.04-47 48.63l-32.4 99.67c50.8 68.17 122.1 120.35 204.5 147.54zm176.8-537.79c24.5 0 47.4-11.58 62-31.21l41.1-55.53c14.8-20.01 19-45.96 11.4-69.61l-33.2-101.77c-40.1-12.83-82.8-19.82-127.2-19.82-44 0-86.3 6.89-126.1 19.43l-33 101.49c-7.6 23.46-3.6 49.12 11 69.13l41 56.2c14.4 19.92 37.6 31.69 62.2 31.69zm-31.5 414c0 24.6 11.9 47.77 31.8 62.32l84.7 61.47c83.1-27.48 154.8-80.23 205.8-149.26l-31-95.27c-7.3-22.4-24.4-40.21-46.4-48.35l-69.1-25.56c-24.1-9-51.2-5.27-72 9.86l-72 52.37c-19.9 14.46-31.8 37.63-31.8 62.24zm404-273.54c0-90.29-28.8-173.97-77.7-242.43h-105.8c-24.3 0-47.3 11.59-61.8 31.22l-41.5 56.01c-14.8 20.01-19 45.95-11.4 69.7l28.3 86.84c7.3 22.4 24.4 40.31 46.5 48.44l64.6 23.94c24.3 9 51.3 5.27 72.1-9.86l86.7-63v-0.86zm-418.4-447.31c246.6 0 447.3 200.67 447.3 447.31 0 246.63-200.7 447.31-447.3 447.31s-447.3-200.68-447.3-447.31c0-246.64 200.7-447.31 447.3-447.31" fill="#fff"/>
  </g>
  <g transform="matrix(.03786 0 0 -.03786 -681.63 68.604)">
   <path d="m15647 4512.3h90.2c56.9 0 106.8-42.86 110.5-99.7 4.2-62.34-45.3-114.33-106.8-114.33h-276.4c0-52.65 42.1-95.6 94.7-96.81 218.3-4.94 415.6-24.14 628.6-57.58 58.9-9.23 112.3 35.96 112.3 95.6v1361.9c0 34.67-28.1 62.81-62.9 62.81-21.8-100.64-57.3-228.48-113.1-349.33-102.2-221.02-238.8-347.74-406.6-377.18-21.3-30.75-45.5-66.72-66.4-103.9-44.8-79.29-76.3-138.37-87.9-200.79 14.1-23.67 21.9-50.69 22.3-78.55 25.3-6.25 47-21.43 61.5-42.12" fill="#00204f"/>
  </g>
  <g transform="matrix(.035772 0 0 -.035772 -681.63 68.604)">
   <path d="m15517 4384.7c218.5 34.51 459.7 55.02 683.6 61.24 55.5 1.58 99.7 46.94 99.7 102.46v0.89h-298.2c-60.3 0-113 45.36-117.1 105.52-4.4 65.88 48 121.01 113 121.01h99.4c15.5 21.89 38.5 37.97 65.2 44.58 0.4 29.48 8.7 58.08 23.7 83.13-12.4 66.07-45.7 128.6-93.1 212.52-22.2 39.36-47.8 77.42-70.3 109.97-177.5 31.16-322.2 165.28-430.3 399.21-59.2 127.91-96.7 263.21-119.8 369.72h-8.4c-36.7 0-66.5-29.78-66.5-66.47v-1442.7c0-63.22 56.6-111.05 119.1-101.08" fill="#00204f"/>
  </g>
  <g transform="matrix(.040182 0 0 -.040182 -681.63 68.604)">
   <path d="m15418 5238.2v-1288.5c0-43.02 30-80.25 72.1-89.12 215.6-45.65 427.6-106.93 635.3-183.84 46.4-17.21 98.4 1.49 123.2 44.43l51.1 88.49-832.4 1441.8c-13.5 23.35-49.3 13.79-49.3-13.26" fill="#00204f"/>
  </g>
  <path d="m-135.23-141.89-33.147 57.411 2.0532 3.556c0.99483 1.7251 3.0868 2.4765 4.953 1.7851 8.248-3.0551 16.672-5.4928 25.234-7.3237 1.6863-0.35983 2.8892-1.8556 2.8892-3.5807v-51.319c0-1.0866-1.4393-1.4711-1.9826-0.52916" fill="#00204f"/>
  <g fill="#fff">
   <path d="m-153.66-75.527c3.9758-1.1395 5.969-1.6616 9.973-2.6 0.23636 1.263 0.35631 1.898 0.59267 3.1609-2.346 0.55033-3.5207 0.84314-5.8561 1.464 0.21519 1.0195 0.32455 1.531 0.54327 2.5506 1.9756-0.52211 2.9633-0.77258 4.946-1.2453 0.2293 1.1853 0.34219 1.778 0.56797 2.9669-1.9614 0.46566-2.9386 0.71261-4.8895 1.2312 0.508 2.3883 0.762 3.5842 1.2665 5.9725-1.524 0.40569-2.286 0.61736-3.8029 1.0548-1.337-5.8244-2.0038-8.7348-3.3408-14.556"/>
   <path d="m-135.84-72.144c0.23636 1.4922 0.64559 2.5188 1.2206 3.0762 0.57503 0.56091 1.2665 0.76552 2.0779 0.61383 0.83609-0.15522 1.4358-0.59267 1.8062-1.3123 0.37041-0.7232 0.4445-1.9121 0.21519-3.5736-0.1905-1.4005-0.57503-2.3777-1.1606-2.9386-0.58208-0.55739-1.2982-0.75847-2.1449-0.60325-0.81139 0.15169-1.4146 0.60325-1.7992 1.3511-0.38806 0.75141-0.45509 1.8803-0.2152 3.3867zm-3.9476 0.80786c-0.42333-2.4059-0.16933-4.4097 0.79022-6.0043 0.95956-1.5946 2.5224-2.6106 4.6637-3.0092 2.1978-0.40922 3.9864-0.0247 5.3375 1.1148 1.3547 1.1395 2.159 2.9175 2.4483 5.3128 0.21167 1.7427 0.13053 3.2068-0.22578 4.3956-0.35983 1.1924-0.96308 2.1696-1.8062 2.9422s-1.9509 1.2806-3.3267 1.5346c-1.397 0.25753-2.5929 0.22225-3.5948-0.12347-1.0019-0.34219-1.8909-1.023-2.6635-2.0461-0.77259-1.023-1.3159-2.3918-1.6228-4.1169"/>
   <path d="m-120.03-74.652c0.14111 1.5099 0.4833 2.5647 1.0195 3.168 0.53975 0.60678 1.2136 0.8643 2.0285 0.77964 0.84314-0.0882 1.4676-0.47273 1.8803-1.1642 0.41628-0.68792 0.56445-1.8697 0.4445-3.5454-0.1023-1.4111-0.4198-2.42-0.96661-3.0233-0.54328-0.60325-1.2453-0.86431-2.099-0.77611-0.81491 0.0847-1.4429 0.49036-1.8732 1.203-0.43391 0.71614-0.57502 1.838-0.43391 3.3584zm-3.9758 0.48684c-0.26811-2.4342 0.11289-4.4132 1.1677-5.9267 1.0583-1.5099 2.6776-2.3989 4.8366-2.6211 2.2119-0.2293 3.9688 0.29633 5.2388 1.5416 1.2735 1.2453 1.965 3.0868 2.099 5.4998 0.0953 1.7533-0.0776 3.2068-0.508 4.3639-0.43392 1.1606-1.0971 2.0884-1.9861 2.7905s-2.025 1.1183-3.4078 1.2594c-1.4076 0.14463-2.5964 0.0106-3.5701-0.41275-0.97719-0.42334-1.8168-1.1748-2.5188-2.2578-0.70555-1.083-1.1571-2.4941-1.3511-4.2369"/>
  </g>
  <g transform="matrix(.035877 0 0 -.035877 -681.63 68.604)">
   <path d="m15951 4230.5c139.4 8.45 209.1 10.62 348.6 10.52 0-41.3 0-62.05-0.1-103.35-46.1 0-69.1-0.2-115.2-1.18 2-126.16 3-189.19 5.1-315.35-43.2-0.88-64.8-1.57-107.9-3.24-4.1 126.06-6.2 189.09-10.2 315.15-46.1-1.87-69.2-3.05-115.3-5.8-1.9 41.3-2.9 61.95-5 103.25" fill="#fff"/>
  </g>
  <g transform="matrix(.036768 0 0 -.036768 -681.63 68.604)">
   <path d="m16085 3814.3c21.6-0.76 32.6-1.15 54.4-2.2 18.3-0.77 31.4 2.4 39.3 9.69s12.1 17.46 12.7 30.41c0.4 12.09-2.9 21.97-10.1 29.74-7.2 7.78-20.3 12.1-39.2 12.96-22 0.96-33 1.34-54.9 2.11-0.9-33.1-1.4-49.6-2.2-82.71zm4.4 160.43c19-0.58 28.5-0.96 47.5-1.83 17-0.67 28.9 2.12 36 8.55 6.9 6.42 10.6 16.02 11.2 28.87 0.5 11.9-2.5 21.3-8.9 28.41-6.6 7-18.2 10.84-35 11.61-19.4 0.86-29.2 1.24-48.7 1.91-0.9-30.99-1.4-46.53-2.1-77.52zm-108.5 163.01c83.7-1.24 125.7-2.59 209.4-6.9 34.8-1.83 61.2-13.25 78.8-33.97 17.5-20.72 25.4-45.48 23.8-74.26-1.5-24.08-9.2-44.33-23.1-60.64-9.3-10.94-22.5-19.19-39.4-24.86 24.9-8.63 42.8-21.97 53.7-40.01 10.9-18.03 15.5-40 14-66-1.3-21.12-6.7-39.82-15.9-56.04-9.2-16.31-21.3-28.88-36-37.8-9.3-5.48-22.8-9.12-40.7-10.85-23.9-2.3-39.7-3.45-47.4-3.07-72.8 3.55-109.1 4.7-181.8 5.76 1.8 163.4 2.7 245.15 4.6 408.64" fill="#fff"/>
  </g>
  <g transform="matrix(.037664 0 0 -.037664 -681.63 68.604)">
   <path d="m16170 3752.9c-9.3 58.83-14.1 88.33-24.1 147.15-20.5-55.26-30.5-82.99-50.4-138.43 29.8-3.28 44.7-5.06 74.5-8.72zm12.9-88.51c-46.9 6.09-70.4 8.81-117.4 13.77-8.8-25.48-13.1-38.31-21.7-63.88-41.9 4.31-62.8 6.19-104.7 9.65 60.2 155.11 92 232.19 158.4 385.43 47.5-5.06 71.3-7.87 118.7-13.96 36.6-165.32 53.3-248.11 83.6-413.8-42.7 6.55-64.2 9.55-107.1 15.26-3.8 27.07-5.8 40.56-9.8 67.53" fill="#fff"/>
  </g>
  <g transform="matrix(.038433 0 0 -.038433 -681.63 68.604)">
   <path d="m16079 3888c42.5-6.98 63.7-10.65 106.1-18.55-17.3-116.29-25.8-174.4-43.1-290.69 63.3-11.75 94.8-18.09 157.8-31.86-6.6-37.81-9.9-56.72-16.4-94.54-101.8 22.22-153 32.04-255.3 48.83 20.3 154.76 30.5 232.14 50.9 386.81" fill="#fff"/>
  </g>
  <g transform="matrix(.039201 0 0 -.039201 -681.63 68.604)">
   <path d="m16101 3745.2c41.3-9.63 62-14.67 103.1-25.11-22.8-112.67-34.2-169.09-57.1-281.76 61.5-15.57 92.2-23.85 153.3-41.49-8.4-36.54-12.6-54.81-21-91.43-98.8 28.44-148.4 41.31-248 64.43 27.8 150.2 41.8 225.26 69.7 375.36" fill="#fff"/>
  </g>
 </g>
</svg>
